Alegreya Sans-ExtraBold Italic.ufo
<glyph name="numbersign" format="1">
  <advance width="563"/>
  <unicode hex="0023"/>
  <outline>
    <contour>
      <point x="377" y="573" type="line"/>
      <point x="281" y="42" type="line"/>
      <point x="289" y="31" type="line"/>
      <point x="377" y="31" type="line"/>
      <point x="474" y="562" type="line"/>
      <point x="464" y="573" type="line"/>
    </contour>
    <contour>
      <point x="27" y="253" type="line"/>
      <point x="20" y="175" type="line"/>
      <point x="29" y="165" type="line"/>
      <point x="504" y="165" type="line"/>
      <point x="510" y="244" type="line"/>
      <point x="501" y="253" type="line"/>
    </contour>
    <contour>
      <point x="181" y="573" type="line"/>
      <point x="85" y="42" type="line"/>
      <point x="93" y="31" type="line"/>
      <point x="181" y="31" type="line"/>
      <point x="278" y="562" type="line"/>
      <point x="268" y="573" type="line"/>
    </contour>
    <contour>
      <point x="59" y="441" type="line"/>
      <point x="52" y="362" type="line"/>
      <point x="61" y="353" type="line"/>
      <point x="536" y="353" type="line"/>
      <point x="542" y="431" type="line"/>
      <point x="533" y="441" type="line"/>
    </contour>
  </outline>
</glyph>
<glyph name="dollar" format="1">
  <advance width="455"/>
  <unicode hex="0024"/>
  <outline>
    <contour>
      <point x="169" y="64" type="line"/>
      <point x="149" y="-125" type="line"/>
      <point x="159" y="-136" type="line"/>
      <point x="236" y="-136" type="line"/>
      <point x="258" y="64" type="line"/>
    </contour>
    <contour>
      <point x="238" y="644" type="line"/>
      <point x="216" y="443" type="line"/>
      <point x="304" y="443" type="line"/>
      <point x="326" y="631" type="line"/>
      <point x="314" y="644" type="line"/>
    </contour>
    <contour>
      <point x="141" y="516"/>
      <point x="57" y="433"/>
      <point x="57" y="334" type="curve" smooth="yes"/>
      <point x="57" y="188"/>
      <point x="254" y="198"/>
      <point x="254" y="136" type="curve" smooth="yes"/>
      <point x="254" y="114"/>
      <point x="233" y="96"/>
      <point x="202" y="96" type="curve" smooth="yes"/>
      <point x="162" y="96"/>
      <point x="103" y="122"/>
      <point x="59" y="163" type="curve"/>
      <point x="44" y="153" type="line"/>
      <point x="9" y="20" type="line"/>
      <point x="66" y="-2"/>
      <point x="129" y="-10"/>
      <point x="175" y="-10" type="curve" smooth="yes"/>
      <point x="334" y="-10"/>
      <point x="402" y="86"/>
      <point x="402" y="172" type="curve" smooth="yes"/>
      <point x="402" y="317"/>
      <point x="206" y="307"/>
      <point x="206" y="369" type="curve" smooth="yes"/>
      <point x="206" y="389"/>
      <point x="223" y="406"/>
      <point x="253" y="406" type="curve" smooth="yes"/>
      <point x="283" y="406"/>
      <point x="327" y="390"/>
      <point x="368" y="358" type="curve"/>
      <point x="390" y="363" type="line"/>
      <point x="425" y="490" type="line"/>
      <point x="385" y="506"/>
      <point x="333" y="516"/>
      <point x="282" y="516" type="curve" smooth="yes"/>
    </contour>
    <contour>
      <point x="253" y="508" type="move" name="top"/>
    </contour>
    <contour>
      <point x="204" y="0" type="move" name="bottom"/>
    </contour>
  </outline>
</glyph>
<glyph name="percent" format="1">
  <advance width="874"/>
  <unicode hex="0025"/>
  <outline>
    <contour>
      <point x="162" y="516" type="move"/>
    </contour>
    <component base="zero.numr" xOffset="2" yOffset="55.636" yScale="0.92"/>
    <component base="fraction" xOffset="377"/>
    <component base="zero.dnom" xOffset="493" yScale="0.92"/>
  </outline>
</glyph>
<glyph name="ampersand" format="1">
  <advance width="646"/>
  <unicode hex="0026"/>
  <outline>
    <contour>
      <point x="191" y="656"/>
      <point x="102" y="580"/>
      <point x="102" y="468" type="curve" smooth="yes"/>
      <point x="102" y="405"/>
      <point x="130" y="359"/>
      <point x="177" y="326" type="curve"/>
      <point x="177" y="322" type="line"/>
      <point x="87" y="283"/>
      <point x="41" y="226"/>
      <point x="41" y="157" type="curve" smooth="yes"/>
      <point x="41" y="53"/>
      <point x="125" y="-11"/>
      <point x="266" y="-11" type="curve" smooth="yes"/>
      <point x="449" y="-11"/>
      <point x="529" y="96"/>
      <point x="529" y="199" type="curve" smooth="yes"/>
      <point x="529" y="230"/>
      <point x="523" y="260"/>
      <point x="509" y="283" type="curve"/>
      <point x="513" y="289" type="line"/>
      <point x="646" y="293" type="line"/>
      <point x="671" y="391" type="line"/>
      <point x="657" y="406" type="line"/>
      <point x="535" y="390" type="line"/>
      <point x="310" y="377" type="line"/>
      <point x="258" y="378"/>
      <point x="227" y="407"/>
      <point x="227" y="469" type="curve" smooth="yes"/>
      <point x="227" y="525"/>
      <point x="260" y="552"/>
      <point x="318" y="552" type="curve" smooth="yes"/>
      <point x="360" y="552"/>
      <point x="402" y="535"/>
      <point x="452" y="507" type="curve"/>
      <point x="470" y="512" type="line"/>
      <point x="505" y="626" type="line"/>
      <point x="443" y="647"/>
      <point x="395" y="656"/>
      <point x="343" y="656" type="curve" smooth="yes"/>
    </contour>
    <contour>
      <point x="401" y="266"/>
      <point x="413" y="237"/>
      <point x="413" y="203" type="curve" smooth="yes"/>
      <point x="413" y="130"/>
      <point x="369" y="85"/>
      <point x="284" y="85" type="curve" smooth="yes"/>
      <point x="217" y="85"/>
      <point x="179" y="116"/>
      <point x="179" y="171" type="curve" smooth="yes"/>
      <point x="179" y="216"/>
      <point x="206" y="252"/>
      <point x="257" y="279" type="curve"/>
      <point x="379" y="284" type="line"/>
    </contour>
  </outline>
</glyph>
<glyph name="plus" format="1">
  <advance width="477"/>
  <unicode hex="002B"/>
  <outline>
    <contour>
      <point x="215" y="471" type="line"/>
      <point x="196" y="311" type="line"/>
      <point x="36" y="311" type="line"/>
      <point x="17" y="217" type="line"/>
      <point x="25" y="206" type="line"/>
      <point x="183" y="206" type="line"/>
      <point x="164" y="48" type="line"/>
      <point x="173" y="38" type="line"/>
      <point x="268" y="46" type="line"/>
      <point x="288" y="206" type="line"/>
      <point x="447" y="206" type="line"/>
      <point x="467" y="300" type="line"/>
      <point x="457" y="311" type="line"/>
      <point x="301" y="311" type="line"/>
      <point x="320" y="469" type="line"/>
      <point x="310" y="479" type="line"/>
    </contour>
  </outline>
</glyph>
<glyph name="comma" format="1">
  <advance width="229"/>
  <unicode hex="002C"/>
  <outline>
    <contour>
      <point x="90" y="139"/>
      <point x="53" y="123"/>
      <point x="18" y="103" type="curve"/>
      <point x="17" y="90" type="line"/>
      <point x="39" y="70"/>
      <point x="50" y="50"/>
      <point x="50" y="24" type="curve" smooth="yes"/>
      <point x="50" y="-13"/>
      <point x="31" y="-46"/>
      <point x="-6" y="-78" type="curve"/>
      <point x="-5" y="-89" type="line"/>
      <point x="45" y="-132" type="line"/>
      <point x="134" y="-69"/>
      <point x="177" y="-9"/>
      <point x="177" y="57" type="curve" smooth="yes"/>
      <point x="177" y="94"/>
      <point x="162" y="124"/>
      <point x="131" y="150" type="curve"/>
    </contour>
  </outline>
</glyph>
<glyph name="B" format="1">
  <advance width="591"/>
  <unicode hex="0042"/>
  <outline>
    <contour>
      <point x="123" y="645" type="line"/>
      <point x="194" y="533" type="line"/>
      <point x="243" y="535"/>
      <point x="271" y="536"/>
      <point x="300" y="536" type="curve" smooth="yes"/>
      <point x="379" y="536"/>
      <point x="403" y="519"/>
      <point x="403" y="472" type="curve" smooth="yes"/>
      <point x="403" y="419"/>
      <point x="377" y="387"/>
      <point x="324" y="373" type="curve"/>
      <point x="145" y="380" type="line"/>
      <point x="131" y="266" type="line"/>
      <point x="329" y="269" type="line"/>
      <point x="373" y="259"/>
      <point x="397" y="239"/>
      <point x="397" y="199" type="curve" smooth="yes"/>
      <point x="397" y="139"/>
      <point x="350" y="104"/>
      <point x="272" y="104" type="curve"/>
      <point x="244" y="104"/>
      <point x="186" y="109"/>
      <point x="151" y="115" type="curve"/>
      <point x="43" y="0" type="line"/>
      <point x="101" y="-3"/>
      <point x="189" y="-6"/>
      <point x="234" y="-6" type="curve" smooth="yes"/>
      <point x="459" y="-6"/>
      <point x="557" y="65"/>
      <point x="557" y="198" type="curve" smooth="yes"/>
      <point x="557" y="266"/>
      <point x="527" y="305"/>
      <point x="451" y="333" type="curve"/>
      <point x="528" y="367"/>
      <point x="567" y="428"/>
      <point x="567" y="501" type="curve" smooth="yes"/>
      <point x="567" y="598"/>
      <point x="486" y="646"/>
      <point x="363" y="646" type="curve" smooth="yes"/>
    </contour>
    <contour>
      <point x="123" y="645" type="line"/>
      <point x="75" y="191" type="line"/>
      <point x="43" y="0" type="line"/>
      <point x="197" y="0" type="line"/>
      <point x="216" y="206" type="line"/>
      <point x="279" y="645" type="line"/>
    </contour>
  </outline>
</glyph>
<glyph name="H" format="1">
  <advance width="692"/>
  <unicode hex="0048"/>
  <outline>
    <contour>
      <point x="510" y="645" type="line"/>
      <point x="462" y="191" type="line"/>
      <point x="430" y="0" type="line"/>
      <point x="589" y="0" type="line"/>
      <point x="608" y="206" type="line"/>
      <point x="671" y="645" type="line"/>
    </contour>
    <contour>
      <point x="122" y="645" type="line"/>
      <point x="74" y="191" type="line"/>
      <point x="42" y="0" type="line"/>
      <point x="201" y="0" type="line"/>
      <point x="220" y="206" type="line"/>
      <point x="283" y="645" type="line"/>
    </contour>
    <contour>
      <point x="367" y="385" type="line"/>
      <point x="226" y="388" type="line"/>
      <point x="210" y="256" type="line"/>
      <point x="341" y="259" type="line"/>
      <point x="481" y="257" type="line"/>
      <point x="498" y="387" type="line"/>
    </contour>
    <contour>
      <point x="364" y="323" type="move" name="center"/>
    </contour>
    <contour>
      <point x="397" y="645" type="move" name="top"/>
    </contour>
  </outline>
</glyph>
<glyph name="M" format="1">
  <advance width="788"/>
  <unicode hex="004D"/>
  <outline>
    <contour>
      <point x="564" y="645" type="line"/>
      <point x="526" y="548" type="line"/>
      <point x="403" y="271" type="line"/>
      <point x="393" y="271" type="line"/>
      <point x="345" y="551" type="line"/>
      <point x="334" y="645" type="line"/>
      <point x="151" y="645" type="line"/>
      <point x="8" y="0" type="line"/>
      <point x="141" y="0" type="line"/>
      <point x="179" y="210" type="line"/>
      <point x="223" y="413" type="line"/>
      <point x="234" y="413" type="line"/>
      <point x="302" y="65" type="line"/>
      <point x="424" y="65" type="line"/>
      <point x="594" y="413" type="line"/>
      <point x="604" y="413" type="line"/>
      <point x="595" y="196" type="line"/>
      <point x="578" y="0" type="line"/>
      <point x="718" y="0" type="line"/>
      <point x="744" y="645" type="line"/>
    </contour>
  </outline>
</glyph>
<glyph name="O" format="1">
  <advance width="642"/>
  <unicode hex="004F"/>
  <outline>
    <contour>
      <point x="153" y="655"/>
      <point x="32" y="499"/>
      <point x="32" y="268" type="curve" smooth="yes"/>
      <point x="32" y="82"/>
      <point x="130" y="-11"/>
      <point x="291" y="-11" type="curve" smooth="yes"/>
      <point x="512" y="-11"/>
      <point x="633" y="149"/>
      <point x="633" y="380" type="curve" smooth="yes"/>
      <point x="633" y="565"/>
      <point x="535" y="655"/>
      <point x="373" y="655" type="curve" smooth="yes"/>
    </contour>
    <contour>
      <point x="437" y="527"/>
      <point x="465" y="482"/>
      <point x="465" y="369" type="curve" smooth="yes"/>
      <point x="465" y="172"/>
      <point x="405" y="109"/>
      <point x="307" y="109" type="curve" smooth="yes"/>
      <point x="225" y="109"/>
      <point x="197" y="155"/>
      <point x="197" y="269" type="curve" smooth="yes"/>
      <point x="197" y="465"/>
      <point x="255" y="527"/>
      <point x="355" y="527" type="curve" smooth="yes"/>
    </contour>
    <contour>
      <point x="371" y="645" type="move" name="top"/>
    </contour>
  </outline>
</glyph>
<glyph name="P" format="1">
  <advance width="561"/>
  <unicode hex="0050"/>
  <outline>
    <contour>
      <point x="122" y="645" type="line"/>
      <point x="199" y="525" type="line"/>
      <point x="321" y="532" type="line"/>
      <point x="383" y="529"/>
      <point x="410" y="502"/>
      <point x="410" y="447" type="curve" smooth="yes"/>
      <point x="410" y="378"/>
      <point x="380" y="332"/>
      <point x="322" y="312" type="curve"/>
      <point x="138" y="320" type="line"/>
      <point x="123" y="198" type="line"/>
      <point x="283" y="198" type="line"/>
      <point x="462" y="198"/>
      <point x="577" y="312"/>
      <point x="577" y="472" type="curve" smooth="yes"/>
      <point x="577" y="586"/>
      <point x="500" y="646"/>
      <point x="378" y="646" type="curve"/>
    </contour>
    <contour>
      <point x="122" y="645" type="line"/>
      <point x="74" y="191" type="line"/>
      <point x="42" y="0" type="line"/>
      <point x="201" y="0" type="line"/>
      <point x="220" y="206" type="line"/>
      <point x="283" y="645" type="line"/>
    </contour>
  </outline>
</glyph>
<glyph name="T" format="1">
  <advance width="501"/>
  <unicode hex="0054"/>
  <outline>
    <contour>
      <point x="222" y="628" type="line"/>
      <point x="176" y="191" type="line"/>
      <point x="143" y="0" type="line"/>
      <point x="302" y="0" type="line"/>
      <point x="320" y="206" type="line"/>
      <point x="379" y="628" type="line"/>
    </contour>
    <contour>
      <point x="73" y="645" type="line"/>
      <point x="49" y="528" type="line"/>
      <point x="57" y="516" type="line"/>
      <point x="183" y="522" type="line"/>
      <point x="394" y="522" type="line"/>
      <point x="516" y="516" type="line"/>
      <point x="539" y="633" type="line"/>
      <point x="532" y="645" type="line"/>
    </contour>
    <contour>
      <point x="222" y="0" type="move" name="bottom"/>
    </contour>
    <contour>
      <point x="268" y="323" type="move" name="center"/>
    </contour>
    <contour>
      <point x="301" y="645" type="move" name="top"/>
    </contour>
  </outline>
</glyph>
<glyph name="U" format="1">
  <advance width="634"/>
  <unicode hex="0055"/>
  <outline>
    <contour>
      <point x="470" y="645" type="line"/>
      <point x="427" y="240" type="line" smooth="yes"/>
      <point x="418" y="156"/>
      <point x="378" y="118"/>
      <point x="301" y="118" type="curve" smooth="yes"/>
      <point x="236" y="118"/>
      <point x="206" y="147"/>
      <point x="206" y="211" type="curve" smooth="yes"/>
      <point x="206" y="221"/>
      <point x="207" y="232"/>
      <point x="208" y="244" type="curve" smooth="yes"/>
      <point x="264" y="645" type="line"/>
      <point x="106" y="645" type="line"/>
      <point x="70" y="320" type="line"/>
      <point x="56" y="223" type="line" smooth="yes"/>
      <point x="54" y="206"/>
      <point x="53" y="190"/>
      <point x="53" y="176" type="curve" smooth="yes"/>
      <point x="53" y="56"/>
      <point x="142" y="-10"/>
      <point x="288" y="-10" type="curve" smooth="yes"/>
      <point x="459" y="-10"/>
      <point x="555" y="75"/>
      <point x="573" y="226" type="curve" smooth="yes"/>
      <point x="585" y="318" type="line"/>
      <point x="630" y="645" type="line"/>
    </contour>
    <contour>
      <point x="543" y="10" type="move" name="ogonek"/>
    </contour>
    <contour>
      <point x="368" y="645" type="move" name="top"/>
    </contour>
  </outline>
</glyph>
<glyph name="Z" format="1">
  <advance width="547"/>
  <unicode hex="005A"/>
  <outline>
    <contour>
      <point x="498" y="645" type="line"/>
      <point x="229" y="645" type="line"/>
      <point x="94" y="647" type="line"/>
      <point x="67" y="523" type="line"/>
      <point x="72" y="516" type="line"/>
      <point x="184" y="525" type="line"/>
      <point x="366" y="525" type="line"/>
      <point x="14" y="109" type="line"/>
      <point x="0" y="-5" type="line"/>
      <point x="86" y="0" type="line"/>
      <point x="328" y="0" type="line"/>
      <point x="483" y="-4" type="line"/>
      <point x="511" y="120" type="line"/>
      <point x="506" y="128" type="line"/>
      <point x="393" y="119" type="line"/>
      <point x="202" y="119" type="line"/>
      <point x="550" y="531" type="line"/>
      <point x="565" y="646" type="line"/>
    </contour>
    <contour>
      <point x="282" y="645" type="move" name="top"/>
    </contour>
  </outline>
</glyph>
<glyph name="backslash" format="1">
  <advance width="392"/>
  <unicode hex="005C"/>
  <outline>
    <contour>
      <point x="44" y="668" type="line"/>
      <point x="251" y="-116" type="line"/>
      <point x="358" y="-116" type="line"/>
      <point x="367" y="-104" type="line"/>
      <point x="161" y="681" type="line"/>
      <point x="56" y="681" type="line"/>
    </contour>
  </outline>
</glyph>
<glyph name="underscore" format="1">
  <advance width="442"/>
  <unicode hex="005F"/>
  <outline>
    <contour>
      <point x="-47" y="-90" type="line"/>
      <point x="-65" y="-176" type="line"/>
      <point x="-56" y="-187" type="line"/>
      <point x="398" y="-187" type="line"/>
      <point x="416" y="-100" type="line"/>
      <point x="408" y="-90" type="line"/>
    </contour>
  </outline>
</glyph>
<glyph name="b" format="1">
  <advance width="473"/>
  <unicode hex="0062"/>
  <outline>
    <contour>
      <point x="319" y="474" type="line"/>
      <point x="280" y="431"/>
      <point x="245" y="380"/>
      <point x="216" y="327" type="curve"/>
      <point x="189" y="327" type="line"/>
      <point x="164" y="114" type="line"/>
      <point x="225" y="264"/>
      <point x="277" y="340"/>
      <point x="300" y="340" type="curve" smooth="yes"/>
      <point x="312" y="340"/>
      <point x="323" y="318"/>
      <point x="323" y="255" type="curve" smooth="yes"/>
      <point x="323" y="164"/>
      <point x="296" y="98"/>
      <point x="244" y="98" type="curve"/>
      <point x="130" y="128" type="line"/>
      <point x="54" y="21" type="line"/>
      <point x="214" y="-10" type="line"/>
      <point x="220" y="-10" type="line"/>
      <point x="378" y="34"/>
      <point x="455" y="180"/>
      <point x="455" y="309" type="curve" smooth="yes"/>
      <point x="455" y="393"/>
      <point x="425" y="447"/>
      <point x="339" y="474" type="curve"/>
    </contour>
    <contour>
      <point x="109" y="694" type="line"/>
      <point x="106" y="587" type="line"/>
      <point x="29" y="24" type="line"/>
      <point x="166" y="0" type="line"/>
      <point x="172" y="88" type="line"/>
      <point x="182" y="184" type="line"/>
      <point x="253" y="704" type="line"/>
    </contour>
  </outline>
</glyph>
<glyph name="c" format="1">
  <advance width="363"/>
  <unicode hex="0063"/>
  <outline>
    <contour>
      <point x="99" y="476"/>
      <point x="18" y="333"/>
      <point x="18" y="174" type="curve" smooth="yes"/>
      <point x="18" y="63"/>
      <point x="58" y="7"/>
      <point x="162" y="-9" type="curve"/>
      <point x="182" y="-9" type="line"/>
      <point x="251" y="15"/>
      <point x="295" y="51"/>
      <point x="338" y="125" type="curve"/>
      <point x="292" y="183" type="line"/>
      <point x="273" y="184" type="line"/>
      <point x="242" y="128"/>
      <point x="221" y="114"/>
      <point x="199" y="114" type="curve" smooth="yes"/>
      <point x="169" y="114"/>
      <point x="156" y="139"/>
      <point x="156" y="202" type="curve" smooth="yes"/>
      <point x="156" y="308"/>
      <point x="183" y="365"/>
      <point x="238" y="365" type="curve" smooth="yes"/>
      <point x="262" y="365"/>
      <point x="275" y="354"/>
      <point x="297" y="327" type="curve"/>
      <point x="328" y="328" type="line"/>
      <point x="369" y="436" type="line"/>
      <point x="365" y="451" type="line"/>
      <point x="284" y="476" type="line"/>
    </contour>
    <contour>
      <point x="189" y="0" type="move" name="bottom"/>
    </contour>
    <contour>
      <point x="241" y="468" type="move" name="top"/>
    </contour>
  </outline>
</glyph>
<glyph name="d" format="1">
  <advance width="471"/>
  <unicode hex="0064"/>
  <outline>
    <contour>
      <point x="256" y="474" type="line"/>
      <point x="91" y="429"/>
      <point x="15" y="280"/>
      <point x="15" y="154" type="curve" smooth="yes"/>
      <point x="15" y="74"/>
      <point x="42" y="18"/>
      <point x="131" y="-10" type="curve"/>
      <point x="152" y="-10" type="line"/>
      <point x="191" y="33"/>
      <point x="225" y="83"/>
      <point x="255" y="136" type="curve"/>
      <point x="275" y="136" type="line"/>
      <point x="307" y="352" type="line"/>
      <point x="245" y="200"/>
      <point x="194" y="127"/>
      <point x="171" y="127" type="curve" smooth="yes"/>
      <point x="159" y="127"/>
      <point x="147" y="148"/>
      <point x="147" y="209" type="curve" smooth="yes"/>
      <point x="147" y="304"/>
      <point x="177" y="366"/>
      <point x="232" y="366" type="curve"/>
      <point x="341" y="334" type="line"/>
      <point x="414" y="440" type="line"/>
      <point x="263" y="474" type="line"/>
    </contour>
    <contour>
      <point x="332" y="694" type="line"/>
      <point x="329" y="587" type="line"/>
      <point x="248" y="-4" type="line"/>
      <point x="393" y="6" type="line"/>
      <point x="397" y="114" type="line"/>
      <point x="477" y="704" type="line"/>
    </contour>
    <contour>
      <point x="348" y="0" type="move" name="bottom"/>
    </contour>
    <contour>
      <point x="426" y="234" type="move" name="center"/>
    </contour>
    <contour>
      <point x="348" y="468" type="move" name="top"/>
    </contour>
    <contour>
      <point x="465" y="468" type="move" name="topright"/>
    </contour>
  </outline>
</glyph>
<glyph name="e" format="1">
  <advance width="416"/>
  <unicode hex="0065"/>
  <outline>
    <contour>
      <point x="130" y="170" type="line"/>
      <point x="325" y="220"/>
      <point x="400" y="279"/>
      <point x="400" y="361" type="curve" smooth="yes"/>
      <point x="400" y="427"/>
      <point x="357" y="464"/>
      <point x="291" y="477" type="curve"/>
      <point x="277" y="478" type="line"/>
      <point x="118" y="470"/>
      <point x="19" y="348"/>
      <point x="19" y="173" type="curve"/>
      <point x="19" y="67"/>
      <point x="67" y="3"/>
      <point x="186" y="-10" type="curve"/>
      <point x="201" y="-10" type="line"/>
      <point x="266" y="8"/>
      <point x="327" y="49"/>
      <point x="378" y="113" type="curve"/>
      <point x="331" y="173" type="line"/>
      <point x="313" y="176" type="line"/>
      <point x="284" y="129"/>
      <point x="249" y="103"/>
      <point x="212" y="103" type="curve" smooth="yes"/>
      <point x="171" y="103"/>
      <point x="154" y="132"/>
      <point x="154" y="215" type="curve" smooth="yes"/>
      <point x="154" y="325"/>
      <point x="185" y="384"/>
      <point x="239" y="384" type="curve" smooth="yes"/>
      <point x="263" y="384"/>
      <point x="272" y="374"/>
      <point x="272" y="352" type="curve" smooth="yes"/>
      <point x="272" y="305"/>
      <point x="227" y="278"/>
      <point x="130" y="256" type="curve"/>
    </contour>
    <contour>
      <point x="198" y="0" type="move" name="bottom"/>
    </contour>
    <contour>
      <point x="350" y="10" type="move" name="ogonek"/>
    </contour>
    <contour>
      <point x="239" y="468" type="move" name="top"/>
    </contour>
  </outline>
</glyph>
<glyph name="g" format="1">
  <advance width="468"/>
  <unicode hex="0067"/>
  <outline>
    <contour>
      <point x="308" y="443" type="line"/>
      <point x="304" y="358" type="line"/>
      <point x="256" y="5" type="line" smooth="yes"/>
      <point x="248" y="-63"/>
      <point x="209" y="-95"/>
      <point x="160" y="-95" type="curve" smooth="yes"/>
      <point x="116" y="-95"/>
      <point x="95" y="-68"/>
      <point x="95" y="-44" type="curve" smooth="yes"/>
      <point x="95" y="-35"/>
      <point x="98" y="-28"/>
      <point x="109" y="-19" type="curve" smooth="yes"/>
      <point x="157" y="19" type="line"/>
      <point x="89" y="71" type="line"/>
      <point x="86" y="36" type="line"/>
      <point x="-49" y="-28" type="line"/>
      <point x="-53" y="-39" type="line"/>
      <point x="-39" y="-130"/>
      <point x="20" y="-197"/>
      <point x="133" y="-197" type="curve" smooth="yes"/>
      <point x="260" y="-197"/>
      <point x="370" y="-112"/>
      <point x="391" y="46" type="curve"/>
      <point x="396" y="124" type="line"/>
      <point x="443" y="471" type="line"/>
      <point x="432" y="478" type="line"/>
    </contour>
    <contour>
      <point x="262" y="474" type="line"/>
      <point x="110" y="433"/>
      <point x="34" y="304"/>
      <point x="34" y="175" type="curve" smooth="yes"/>
      <point x="34" y="99"/>
      <point x="60" y="44"/>
      <point x="144" y="19" type="curve"/>
      <point x="157" y="19" type="line"/>
      <point x="197" y="56"/>
      <point x="233" y="102"/>
      <point x="263" y="156" type="curve"/>
      <point x="284" y="156" type="line"/>
      <point x="313" y="360" type="line"/>
      <point x="253" y="216"/>
      <point x="202" y="144"/>
      <point x="181" y="144" type="curve" smooth="yes"/>
      <point x="169" y="144"/>
      <point x="157" y="164"/>
      <point x="157" y="224" type="curve" smooth="yes"/>
      <point x="157" y="314"/>
      <point x="185" y="373"/>
      <point x="240" y="373" type="curve"/>
      <point x="344" y="342" type="line"/>
      <point x="413" y="440" type="line"/>
      <point x="267" y="474" type="line"/>
    </contour>
    <contour>
      <point x="269" y="467" type="move" name="top"/>
    </contour>
  </outline>
</glyph>
<glyph name="k" format="1">
  <advance width="515"/>
  <unicode hex="006B"/>
  <outline>
    <contour>
      <point x="359" y="470" type="line"/>
      <point x="309" y="430"/>
      <point x="263" y="377"/>
      <point x="215" y="313" type="curve"/>
      <point x="197" y="313" type="line"/>
      <point x="166" y="128" type="line"/>
      <point x="237" y="267"/>
      <point x="295" y="322"/>
      <point x="326" y="322" type="curve" smooth="yes"/>
      <point x="336" y="322"/>
      <point x="344" y="316"/>
      <point x="344" y="301" type="curve" smooth="yes"/>
      <point x="344" y="269"/>
      <point x="307" y="228"/>
      <point x="249" y="192" type="curve"/>
      <point x="244" y="173" type="line"/>
      <point x="266" y="113"/>
      <point x="292" y="53"/>
      <point x="320" y="-5" type="curve"/>
      <point x="333" y="-12" type="line"/>
      <point x="455" y="5" type="line"/>
      <point x="462" y="16" type="line"/>
      <point x="430" y="69"/>
      <point x="399" y="125"/>
      <point x="371" y="181" type="curve"/>
      <point x="441" y="228"/>
      <point x="489" y="286"/>
      <point x="489" y="354" type="curve" smooth="yes"/>
      <point x="489" y="422"/>
      <point x="441" y="458"/>
      <point x="372" y="471" type="curve"/>
    </contour>
    <contour>
      <point x="109" y="694" type="line"/>
      <point x="107" y="587" type="line"/>
      <point x="25" y="-4" type="line"/>
      <point x="170" y="6" type="line"/>
      <point x="173" y="114" type="line"/>
      <point x="254" y="704" type="line"/>
    </contour>
    <contour>
      <point x="250" y="0" type="move" name="bottom"/>
    </contour>
    <contour>
      <point x="125" y="467" type="move" name="top"/>
    </contour>
    <contour>
      <point x="241" y="467" type="move" name="topright"/>
    </contour>
  </outline>
</glyph>
<glyph name="m" format="1">
  <advance width="771"/>
  <unicode hex="006D"/>
  <outline>
    <contour>
      <point x="608" y="470" type="line"/>
      <point x="563" y="429"/>
      <point x="522" y="380"/>
      <point x="476" y="310" type="curve"/>
      <point x="458" y="310" type="line"/>
      <point x="428" y="129" type="line"/>
      <point x="495" y="261"/>
      <point x="548" y="320"/>
      <point x="576" y="320" type="curve" smooth="yes"/>
      <point x="587" y="320"/>
      <point x="593" y="313"/>
      <point x="593" y="297" type="curve"/>
      <point x="592" y="286" type="line"/>
      <point x="545" y="-4" type="line"/>
      <point x="693" y="6" type="line"/>
      <point x="696" y="115" type="line"/>
      <point x="735" y="355" type="line"/>
      <point x="736" y="368" type="line"/>
      <point x="737" y="421"/>
      <point x="691" y="458"/>
      <point x="621" y="471" type="curve"/>
    </contour>
    <contour>
      <point x="77" y="462" type="line"/>
      <point x="73" y="354" type="line"/>
      <point x="24" y="-4" type="line"/>
      <point x="169" y="6" type="line"/>
      <point x="173" y="114" type="line"/>
      <point x="221" y="472" type="line"/>
    </contour>
    <contour>
      <point x="345" y="470" type="line"/>
      <point x="299" y="429"/>
      <point x="259" y="380"/>
      <point x="212" y="310" type="curve"/>
      <point x="194" y="310" type="line"/>
      <point x="164" y="129" type="line"/>
      <point x="231" y="261"/>
      <point x="284" y="320"/>
      <point x="312" y="320" type="curve" smooth="yes"/>
      <point x="323" y="320"/>
      <point x="329" y="313"/>
      <point x="329" y="297" type="curve"/>
      <point x="328" y="286" type="line"/>
      <point x="281" y="-4" type="line"/>
      <point x="429" y="6" type="line"/>
      <point x="432" y="115" type="line"/>
      <point x="471" y="355" type="line"/>
      <point x="472" y="368" type="line"/>
      <point x="473" y="421"/>
      <point x="428" y="458"/>
      <point x="357" y="471" type="curve"/>
    </contour>
    <contour>
      <point x="227" y="10" type="move" name="ogonek"/>
    </contour>
    <contour>
      <point x="150" y="467" type="move" name="top"/>
    </contour>
  </outline>
</glyph>
<glyph name="n" format="1">
  <advance width="506"/>
  <unicode hex="006E"/>
  <outline>
    <contour>
      <point x="345" y="470" type="line"/>
      <point x="299" y="429"/>
      <point x="259" y="380"/>
      <point x="212" y="310" type="curve"/>
      <point x="194" y="310" type="line"/>
      <point x="164" y="129" type="line"/>
      <point x="231" y="261"/>
      <point x="284" y="320"/>
      <point x="312" y="320" type="curve" smooth="yes"/>
      <point x="324" y="320"/>
      <point x="329" y="313"/>
      <point x="329" y="297" type="curve"/>
      <point x="328" y="286" type="line"/>
      <point x="281" y="-4" type="line"/>
      <point x="429" y="6" type="line"/>
      <point x="433" y="115" type="line"/>
      <point x="472" y="355" type="line"/>
      <point x="473" y="368" type="line"/>
      <point x="474" y="421"/>
      <point x="421" y="458"/>
      <point x="357" y="471" type="curve"/>
    </contour>
    <contour>
      <point x="214" y="104" type="move"/>
    </contour>
    <contour>
      <point x="77" y="462" type="line"/>
      <point x="73" y="354" type="line"/>
      <point x="24" y="-4" type="line"/>
      <point x="169" y="6" type="line"/>
      <point x="173" y="114" type="line"/>
      <point x="221" y="472" type="line"/>
    </contour>
    <contour>
      <point x="225" y="0" type="move" name="bottom"/>
    </contour>
    <contour>
      <point x="283" y="467" type="move" name="top"/>
    </contour>
  </outline>
</glyph>
<glyph name="q" format="1">
  <advance width="472"/>
  <unicode hex="0071"/>
  <outline>
    <contour>
      <point x="256" y="474" type="line"/>
      <point x="91" y="429"/>
      <point x="15" y="280"/>
      <point x="15" y="154" type="curve" smooth="yes"/>
      <point x="15" y="74"/>
      <point x="42" y="18"/>
      <point x="131" y="-10" type="curve"/>
      <point x="151" y="-10" type="line"/>
      <point x="190" y="33"/>
      <point x="225" y="83"/>
      <point x="254" y="136" type="curve"/>
      <point x="275" y="136" type="line"/>
      <point x="306" y="352" type="line"/>
      <point x="245" y="200"/>
      <point x="193" y="127"/>
      <point x="171" y="127" type="curve" smooth="yes"/>
      <point x="158" y="127"/>
      <point x="147" y="149"/>
      <point x="147" y="209" type="curve" smooth="yes"/>
      <point x="147" y="304"/>
      <point x="177" y="366"/>
      <point x="232" y="366" type="curve"/>
      <point x="340" y="334" type="line"/>
      <point x="413" y="440" type="line"/>
      <point x="262" y="474" type="line"/>
    </contour>
    <contour>
      <point x="304" y="443" type="line"/>
      <point x="299" y="352" type="line"/>
      <point x="224" y="-195" type="line"/>
      <point x="369" y="-185" type="line"/>
      <point x="373" y="-77" type="line"/>
      <point x="446" y="471" type="line"/>
      <point x="435" y="478" type="line"/>
    </contour>
  </outline>
</glyph>
<glyph name="r" format="1">
  <advance width="366"/>
  <unicode hex="0072"/>
  <outline>
    <contour>
      <point x="294" y="429"/>
      <point x="253" y="381"/>
      <point x="215" y="317" type="curve"/>
      <point x="186" y="317" type="line"/>
      <point x="163" y="140" type="line"/>
      <point x="226" y="251"/>
      <point x="263" y="280"/>
      <point x="320" y="286" type="curve"/>
      <point x="345" y="281" type="line"/>
      <point x="358" y="287" type="line"/>
      <point x="382" y="467" type="line"/>
      <point x="354" y="471" type="line"/>
    </contour>
    <contour>
      <point x="78" y="462" type="line"/>
      <point x="74" y="354" type="line"/>
      <point x="25" y="-4" type="line"/>
      <point x="170" y="6" type="line"/>
      <point x="174" y="114" type="line"/>
      <point x="222" y="472" type="line"/>
    </contour>
    <contour>
      <point x="115" y="0" type="move" name="bottom"/>
    </contour>
    <contour>
      <point x="236" y="467" type="move" name="top"/>
    </contour>
  </outline>
</glyph>
<glyph name="u" format="1">
  <advance width="499"/>
  <unicode hex="0075"/>
  <outline>
    <contour>
      <point x="76" y="462" type="line"/>
      <point x="70" y="352" type="line"/>
      <point x="32" y="115" type="line"/>
      <point x="30" y="97" type="line"/>
      <point x="30" y="44"/>
      <point x="77" y="6"/>
      <point x="148" y="-4" type="curve"/>
      <point x="160" y="-3" type="line"/>
      <point x="206" y="37"/>
      <point x="244" y="84"/>
      <point x="287" y="151" type="curve"/>
      <point x="317" y="151" type="line"/>
      <point x="339" y="339" type="line"/>
      <point x="270" y="206"/>
      <point x="220" y="145"/>
      <point x="193" y="145" type="curve" smooth="yes"/>
      <point x="181" y="145"/>
      <point x="175" y="152"/>
      <point x="175" y="169" type="curve"/>
      <point x="176" y="185" type="line"/>
      <point x="222" y="471" type="line"/>
    </contour>
    <contour>
      <point x="330" y="462" type="line"/>
      <point x="326" y="354" type="line"/>
      <point x="277" y="-4" type="line"/>
      <point x="422" y="6" type="line"/>
      <point x="425" y="114" type="line"/>
      <point x="474" y="472" type="line"/>
    </contour>
    <contour>
      <point x="422" y="10" type="move" name="ogonek"/>
    </contour>
    <contour>
      <point x="279" y="467" type="move" name="top"/>
    </contour>
  </outline>
</glyph>
<glyph name="v" format="1">
  <advance width="450"/>
  <unicode hex="0076"/>
  <outline>
    <contour>
      <point x="301" y="455" type="line"/>
      <point x="295" y="440" type="line"/>
      <point x="306" y="420"/>
      <point x="312" y="401"/>
      <point x="312" y="380" type="curve" smooth="yes"/>
      <point x="312" y="352"/>
      <point x="302" y="322"/>
      <point x="285" y="286" type="curve" smooth="yes"/>
      <point x="216" y="149" type="line"/>
      <point x="205" y="149" type="line"/>
      <point x="190" y="384" type="line"/>
      <point x="189" y="472" type="line"/>
      <point x="45" y="463" type="line"/>
      <point x="101" y="0" type="line"/>
      <point x="266" y="0" type="line"/>
      <point x="405" y="250" type="line" smooth="yes"/>
      <point x="435" y="304"/>
      <point x="451" y="350"/>
      <point x="451" y="395" type="curve" smooth="yes"/>
      <point x="451" y="422"/>
      <point x="445" y="448"/>
      <point x="434" y="474" type="curve"/>
    </contour>
  </outline>
</glyph>
<glyph name="w" format="1">
  <advance width="723"/>
  <unicode hex="0077"/>
  <outline>
    <contour>
      <point x="709" y="304"/>
      <point x="726" y="350"/>
      <point x="726" y="395" type="curve" smooth="yes"/>
      <point x="726" y="422"/>
      <point x="720" y="448"/>
      <point x="709" y="474" type="curve"/>
      <point x="576" y="455" type="line"/>
      <point x="570" y="440" type="line"/>
      <point x="581" y="420"/>
      <point x="587" y="401"/>
      <point x="587" y="380" type="curve" smooth="yes"/>
      <point x="587" y="352"/>
      <point x="576" y="323"/>
      <point x="560" y="286" type="curve" smooth="yes"/>
      <point x="502" y="162" type="line"/>
      <point x="490" y="162" type="line"/>
      <point x="478" y="393" type="line"/>
      <point x="476" y="468" type="line"/>
      <point x="323" y="468" type="line"/>
      <point x="298" y="384" type="line"/>
      <point x="211" y="162" type="line"/>
      <point x="199" y="162" type="line"/>
      <point x="188" y="393" type="line"/>
      <point x="187" y="472" type="line"/>
      <point x="45" y="463" type="line"/>
      <point x="99" y="0" type="line"/>
      <point x="256" y="0" type="line"/>
      <point x="360" y="274" type="line"/>
      <point x="373" y="274" type="line"/>
      <point x="392" y="0" type="line"/>
      <point x="550" y="0" type="line"/>
      <point x="680" y="250" type="line" smooth="yes"/>
    </contour>
    <contour>
      <point x="391" y="467" type="move" name="top"/>
    </contour>
  </outline>
</glyph>
<glyph name="x" format="1">
  <advance width="482"/>
  <unicode hex="0078"/>
  <outline>
    <contour>
      <point x="490" y="468" type="line"/>
      <point x="338" y="468" type="line"/>
      <point x="315" y="421" type="line"/>
      <point x="257" y="334" type="line"/>
      <point x="220" y="425" type="line"/>
      <point x="206" y="476" type="line"/>
      <point x="50" y="463" type="line"/>
      <point x="144" y="241" type="line"/>
      <point x="-21" y="0" type="line"/>
      <point x="136" y="0" type="line"/>
      <point x="162" y="58" type="line"/>
      <point x="223" y="148" type="line"/>
      <point x="259" y="55" type="line"/>
      <point x="273" y="-8" type="line"/>
      <point x="434" y="4" type="line"/>
      <point x="327" y="233" type="line"/>
    </contour>
  </outline>
</glyph>
<glyph name="z" format="1">
  <advance width="433"/>
  <unicode hex="007A"/>
  <outline>
    <contour>
      <point x="350" y="466" type="line"/>
      <point x="175" y="471" type="line"/>
      <point x="84" y="478" type="line"/>
      <point x="70" y="469" type="line"/>
      <point x="45" y="343" type="line"/>
      <point x="56" y="333" type="line"/>
      <point x="132" y="346" type="line"/>
      <point x="222" y="348" type="line"/>
      <point x="-22" y="33" type="line"/>
      <point x="21" y="-7" type="line"/>
      <point x="38" y="-7" type="line"/>
      <point x="62" y="15"/>
      <point x="77" y="23"/>
      <point x="100" y="23" type="curve" smooth="yes"/>
      <point x="145" y="23"/>
      <point x="197" y="-10"/>
      <point x="260" y="-10" type="curve" smooth="yes"/>
      <point x="343" y="-10"/>
      <point x="400" y="42"/>
      <point x="403" y="192" type="curve"/>
      <point x="344" y="211" type="line"/>
      <point x="326" y="204" type="line"/>
      <point x="319" y="137"/>
      <point x="302" y="123"/>
      <point x="259" y="123" type="curve" smooth="yes"/>
      <point x="248" y="123"/>
      <point x="212" y="131"/>
      <point x="202" y="131" type="curve"/>
      <point x="175" y="124" type="line"/>
      <point x="427" y="445" type="line"/>
      <point x="385" y="486" type="line"/>
    </contour>
    <contour>
      <point x="246" y="467" type="move" name="top"/>
    </contour>
  </outline>
</glyph>
<glyph name="sterling" format="1">
  <advance width="460"/>
  <unicode hex="00A3"/>
  <outline>
    <contour>
      <point x="219" y="596"/>
      <point x="131" y="529"/>
      <point x="117" y="405" type="curve" smooth="yes"/>
      <point x="92" y="189" type="line" smooth="yes"/>
      <point x="85" y="134"/>
      <point x="60" y="105"/>
      <point x="7" y="93" type="curve"/>
      <point x="-9" y="8" type="line"/>
      <point x="-4" y="0" type="line"/>
      <point x="260" y="0" type="line" smooth="yes"/>
      <point x="396" y="-4" type="line"/>
      <point x="419" y="103" type="line"/>
      <point x="415" y="111" type="line"/>
      <point x="311" y="103" type="line"/>
      <point x="175" y="103" type="line"/>
      <point x="175" y="107" type="line"/>
      <point x="205" y="129"/>
      <point x="219" y="152"/>
      <point x="224" y="198" type="curve" smooth="yes"/>
      <point x="255" y="429" type="line" smooth="yes"/>
      <point x="261" y="477"/>
      <point x="290" y="497"/>
      <point x="334" y="497" type="curve" smooth="yes"/>
      <point x="364" y="497"/>
      <point x="397" y="488"/>
      <point x="441" y="465" type="curve"/>
      <point x="452" y="472" type="line"/>
      <point x="472" y="581" type="line"/>
      <point x="433" y="591"/>
      <point x="396" y="596"/>
      <point x="358" y="596" type="curve" smooth="yes"/>
    </contour>
    <contour>
      <point x="39" y="347" type="line"/>
      <point x="24" y="271" type="line"/>
      <point x="27" y="264" type="line"/>
      <point x="358" y="264" type="line"/>
      <point x="374" y="339" type="line"/>
      <point x="370" y="347" type="line"/>
    </contour>
  </outline>
</glyph>
<glyph name="yen" format="1">
  <advance width="565"/>
  <unicode hex="00A5"/>
  <outline>
    <contour>
      <point x="34" y="177" type="line"/>
      <point x="23" y="114" type="line"/>
      <point x="28" y="107" type="line"/>
      <point x="510" y="107" type="line"/>
      <point x="521" y="170" type="line"/>
      <point x="515" y="177" type="line"/>
    </contour>
    <contour>
      <point x="52" y="315" type="line"/>
      <point x="40" y="253" type="line"/>
      <point x="44" y="245" type="line"/>
      <point x="223" y="245" type="line"/>
      <point x="228" y="315" type="line"/>
    </contour>
    <contour>
      <point x="350" y="315" type="line"/>
      <point x="337" y="245" type="line"/>
      <point x="525" y="245" type="line"/>
      <point x="538" y="309" type="line"/>
      <point x="532" y="315" type="line"/>
    </contour>
    <contour>
      <point x="430" y="506" type="line"/>
      <point x="408" y="463" type="line"/>
      <point x="290" y="297" type="line"/>
      <point x="281" y="297" type="line"/>
      <point x="216" y="467" type="line"/>
      <point x="208" y="506" type="line"/>
      <point x="67" y="506" type="line"/>
      <point x="234" y="84" type="line"/>
      <point x="277" y="84" type="line"/>
      <point x="568" y="506" type="line"/>
    </contour>
    <contour>
      <point x="209" y="220" type="line"/>
      <point x="202" y="137" type="line"/>
      <point x="178" y="0" type="line"/>
      <point x="311" y="0" type="line"/>
      <point x="323" y="137" type="line"/>
      <point x="337" y="220" type="line"/>
    </contour>
    <contour>
      <point x="317" y="508" type="move" name="top"/>
    </contour>
  </outline>
</glyph>
<glyph name="brokenbar" format="1">
  <advance width="305"/>
  <unicode hex="00A6"/>
  <outline>
    <contour>
      <point x="163" y="797" type="line"/>
      <point x="111" y="375" type="line"/>
      <point x="120" y="365" type="line"/>
      <point x="228" y="379" type="line"/>
      <point x="282" y="795" type="line"/>
      <point x="272" y="806" type="line"/>
    </contour>
    <contour>
      <point x="83" y="149" type="line"/>
      <point x="34" y="-245" type="line"/>
      <point x="44" y="-258" type="line"/>
      <point x="151" y="-250" type="line"/>
      <point x="199" y="147" type="line"/>
      <point x="188" y="161" type="line"/>
    </contour>
  </outline>
</glyph>
<glyph name="dieresis" format="1">
  <advance width="390"/>
  <unicode hex="00A8"/>
  <outline>
    <contour>
      <point x="109" y="694"/>
      <point x="81" y="665"/>
      <point x="81" y="619" type="curve" smooth="yes"/>
      <point x="81" y="575"/>
      <point x="105" y="550"/>
      <point x="150" y="550" type="curve" smooth="yes"/>
      <point x="194" y="550"/>
      <point x="222" y="579"/>
      <point x="222" y="625" type="curve" smooth="yes"/>
      <point x="222" y="668"/>
      <point x="197" y="694"/>
      <point x="155" y="694" type="curve" smooth="yes"/>
    </contour>
    <contour>
      <point x="291" y="693"/>
      <point x="263" y="665"/>
      <point x="263" y="619" type="curve" smooth="yes"/>
      <point x="263" y="574"/>
      <point x="287" y="549"/>
      <point x="332" y="549" type="curve" smooth="yes"/>
      <point x="376" y="549"/>
      <point x="404" y="578"/>
      <point x="404" y="625" type="curve" smooth="yes"/>
      <point x="404" y="668"/>
      <point x="379" y="693"/>
      <point x="337" y="693" type="curve" smooth="yes"/>
    </contour>
    <contour>
      <point x="224" y="467" type="move" name="_top"/>
    </contour>
  </outline>
</glyph>
<glyph name="softhyphen" format="1">
  <advance width="302"/>
  <unicode hex="00AD"/>
  <outline>
    <contour>
      <point x="33" y="290" type="line"/>
      <point x="22" y="194" type="line"/>
      <point x="32" y="182" type="line"/>
      <point x="274" y="219" type="line"/>
      <point x="285" y="315" type="line"/>
      <point x="275" y="326" type="line"/>
    </contour>
  </outline>
</glyph>
<glyph name="registered" format="1">
  <advance width="449"/>
  <unicode hex="00AE"/>
  <outline>
    <contour>
      <point x="112" y="703"/>
      <point x="36" y="627"/>
      <point x="36" y="515" type="curve" smooth="yes"/>
      <point x="36" y="401"/>
      <point x="112" y="326"/>
      <point x="224" y="326" type="curve" smooth="yes"/>
      <point x="338" y="326"/>
      <point x="413" y="401"/>
      <point x="413" y="515" type="curve" smooth="yes"/>
      <point x="413" y="627"/>
      <point x="338" y="703"/>
      <point x="224" y="703" type="curve" smooth="yes"/>
    </contour>
    <contour>
      <point x="149" y="618" type="line"/>
      <point x="151" y="480" type="line"/>
      <point x="149" y="423" type="line"/>
      <point x="203" y="423" type="line"/>
      <point x="201" y="486" type="line"/>
      <point x="204" y="618" type="line"/>
    </contour>
    <contour>
      <point x="217" y="509" type="line"/>
      <point x="230" y="481"/>
      <point x="245" y="452"/>
      <point x="263" y="424" type="curve"/>
      <point x="269" y="419" type="line"/>
      <point x="288" y="421"/>
      <point x="306" y="423"/>
      <point x="322" y="429" type="curve"/>
      <point x="323" y="435" type="line"/>
      <point x="302" y="459"/>
      <point x="283" y="485"/>
      <point x="266" y="510" type="curve"/>
    </contour>
    <contour>
      <point x="316" y="666"/>
      <point x="377" y="606"/>
      <point x="377" y="515" type="curve" smooth="yes"/>
      <point x="377" y="423"/>
      <point x="316" y="362"/>
      <point x="225" y="362" type="curve" smooth="yes"/>
      <point x="134" y="362"/>
      <point x="73" y="423"/>
      <point x="73" y="515" type="curve" smooth="yes"/>
      <point x="73" y="606"/>
      <point x="134" y="666"/>
      <point x="225" y="666" type="curve" smooth="yes"/>
    </contour>
    <contour>
      <point x="149" y="618" type="line"/>
      <point x="180" y="577" type="line"/>
      <point x="221" y="579" type="line"/>
      <point x="244" y="578"/>
      <point x="254" y="571"/>
      <point x="254" y="553" type="curve" smooth="yes"/>
      <point x="254" y="537"/>
      <point x="246" y="529"/>
      <point x="231" y="522" type="curve"/>
      <point x="169" y="526" type="line"/>
      <point x="169" y="484" type="line"/>
      <point x="233" y="484" type="line"/>
      <point x="280" y="493"/>
      <point x="310" y="523"/>
      <point x="310" y="558" type="curve" smooth="yes"/>
      <point x="310" y="597"/>
      <point x="285" y="619"/>
      <point x="240" y="619" type="curve"/>
    </contour>
  </outline>
</glyph>
<glyph name="degree" format="1">
  <advance width="293"/>
  <unicode hex="00B0"/>
  <outline>
    <contour>
      <point x="119" y="655"/>
      <point x="49" y="590"/>
      <point x="49" y="510" type="curve" smooth="yes"/>
      <point x="49" y="444"/>
      <point x="98" y="392"/>
      <point x="166" y="392" type="curve" smooth="yes"/>
      <point x="245" y="392"/>
      <point x="315" y="457"/>
      <point x="315" y="537" type="curve" smooth="yes"/>
      <point x="315" y="603"/>
      <point x="266" y="655"/>
      <point x="198" y="655" type="curve" smooth="yes"/>
    </contour>
    <contour>
      <point x="225" y="590"/>
      <point x="249" y="565"/>
      <point x="249" y="531" type="curve" smooth="yes"/>
      <point x="249" y="489"/>
      <point x="216" y="457"/>
      <point x="174" y="457" type="curve" smooth="yes"/>
      <point x="139" y="457"/>
      <point x="115" y="482"/>
      <point x="115" y="516" type="curve" smooth="yes"/>
      <point x="115" y="558"/>
      <point x="148" y="590"/>
      <point x="191" y="590" type="curve" smooth="yes"/>
    </contour>
  </outline>
</glyph>
<glyph name="Thorn" format="1">
  <advance width="569"/>
  <unicode hex="00DE"/>
  <outline>
    <contour>
      <point x="122" y="645" type="line"/>
      <point x="74" y="191" type="line"/>
      <point x="42" y="0" type="line"/>
      <point x="202" y="0" type="line"/>
      <point x="221" y="206" type="line"/>
      <point x="284" y="645" type="line"/>
    </contour>
    <contour>
      <point x="122" y="546" type="line"/>
      <point x="197" y="428" type="line"/>
      <point x="318" y="435" type="line"/>
      <point x="380" y="432"/>
      <point x="406" y="406"/>
      <point x="406" y="351" type="curve" smooth="yes"/>
      <point x="406" y="284"/>
      <point x="376" y="237"/>
      <point x="319" y="218" type="curve"/>
      <point x="138" y="226" type="line"/>
      <point x="123" y="105" type="line"/>
      <point x="281" y="105" type="line"/>
      <point x="457" y="105"/>
      <point x="571" y="218"/>
      <point x="571" y="376" type="curve" smooth="yes"/>
      <point x="571" y="489"/>
      <point x="496" y="547"/>
      <point x="374" y="547" type="curve"/>
    </contour>
  </outline>
</glyph>
<glyph name="ae" format="1">
  <advance width="659"/>
  <unicode hex="00E6"/>
  <outline>
    <contour>
      <point x="265" y="474" type="line"/>
      <point x="259" y="474" type="line"/>
      <point x="95" y="429"/>
      <point x="19" y="283"/>
      <point x="19" y="154" type="curve" smooth="yes"/>
      <point x="19" y="79"/>
      <point x="45" y="18"/>
      <point x="136" y="-10" type="curve"/>
      <point x="156" y="-10" type="line"/>
      <point x="200" y="38"/>
      <point x="240" y="94"/>
      <point x="273" y="152" type="curve"/>
      <point x="274" y="149"/>
      <point x="276" y="142"/>
      <point x="276" y="139" type="curve" smooth="yes"/>
      <point x="291" y="54"/>
      <point x="331" y="2"/>
      <point x="439" y="-10" type="curve"/>
      <point x="454" y="-10" type="line"/>
      <point x="519" y="8"/>
      <point x="580" y="49"/>
      <point x="631" y="113" type="curve"/>
      <point x="585" y="173" type="line"/>
      <point x="566" y="175" type="line"/>
      <point x="539" y="128"/>
      <point x="502" y="102"/>
      <point x="463" y="102" type="curve" smooth="yes"/>
      <point x="431" y="102"/>
      <point x="415" y="120"/>
      <point x="410" y="162" type="curve" smooth="yes"/>
      <point x="408" y="168"/>
      <point x="408" y="172"/>
      <point x="407" y="177" type="curve"/>
      <point x="586" y="226"/>
      <point x="653" y="284"/>
      <point x="653" y="362" type="curve" smooth="yes"/>
      <point x="653" y="429"/>
      <point x="607" y="465"/>
      <point x="544" y="477" type="curve"/>
      <point x="530" y="478" type="line"/>
      <point x="482" y="476"/>
      <point x="440" y="463"/>
      <point x="403" y="442" type="curve"/>
    </contour>
    <contour>
      <point x="310" y="344" type="line"/>
      <point x="303" y="331"/>
      <point x="302" y="333"/>
      <point x="295" y="316" type="curve" smooth="yes"/>
      <point x="242" y="191"/>
      <point x="196" y="127"/>
      <point x="174" y="127" type="curve" smooth="yes"/>
      <point x="161" y="127"/>
      <point x="150" y="147"/>
      <point x="150" y="209" type="curve" smooth="yes"/>
      <point x="150" y="304"/>
      <point x="180" y="367"/>
      <point x="236" y="367" type="curve"/>
    </contour>
    <contour>
      <point x="516" y="385"/>
      <point x="527" y="375"/>
      <point x="527" y="353" type="curve" smooth="yes"/>
      <point x="527" y="311"/>
      <point x="489" y="282"/>
      <point x="406" y="260" type="curve"/>
      <point x="414" y="341"/>
      <point x="444" y="385"/>
      <point x="492" y="385" type="curve" smooth="yes"/>
    </contour>
    <contour>
      <point x="670" y="0" type="move" name="bottom"/>
    </contour>
    <contour>
      <point x="425" y="10" type="move" name="ogonek"/>
    </contour>
    <contour>
      <point x="371" y="468" type="move" name="top"/>
    </contour>
  </outline>
</glyph>
<glyph name="oslash" format="1">
  <advance width="449"/>
  <unicode hex="00F8"/>
  <outline>
    <contour>
      <point x="106" y="109" type="line"/>
      <point x="1" y="-72" type="line"/>
      <point x="5" y="-85" type="line"/>
      <point x="79" y="-127" type="line"/>
      <point x="182" y="50" type="line"/>
    </contour>
    <contour>
      <point x="365" y="378" type="line"/>
      <point x="449" y="524" type="line"/>
      <point x="442" y="538" type="line"/>
      <point x="372" y="579" type="line"/>
      <point x="279" y="419" type="line"/>
    </contour>
    <component base="o"/>
    <contour>
      <point x="241" y="467" type="move" name="top"/>
    </contour>
  </outline>
</glyph>
<glyph name="Aogonek" format="1">
  <advance width="600"/>
  <unicode hex="0104"/>
  <outline>
    <contour>
      <point x="398" y="0" type="line"/>
      <point x="363" y="-51"/>
      <point x="353" y="-79"/>
      <point x="353" y="-109" type="curve" smooth="yes"/>
      <point x="353" y="-163"/>
      <point x="385" y="-197"/>
      <point x="437" y="-197" type="curve" smooth="yes"/>
      <point x="471" y="-197"/>
      <point x="503" y="-181"/>
      <point x="542" y="-149" type="curve"/>
      <point x="539" y="-86" type="line"/>
      <point x="531" y="-86" type="line"/>
      <point x="508" y="-103"/>
      <point x="487" y="-113"/>
      <point x="467" y="-113" type="curve" smooth="yes"/>
      <point x="449" y="-113"/>
      <point x="439" y="-104"/>
      <point x="439" y="-85" type="curve" smooth="yes"/>
      <point x="439" y="-68"/>
      <point x="447" y="-45"/>
      <point x="483" y="1" type="curve"/>
    </contour>
    <component base="A"/>
  </outline>
</glyph>
<glyph name="Iogonek" format="1">
  <advance width="305"/>
  <unicode hex="012E"/>
  <outline>
    <contour>
      <point x="47" y="8" type="line"/>
      <point x="7" y="-46"/>
      <point x="-5" y="-75"/>
      <point x="-5" y="-107" type="curve" smooth="yes"/>
      <point x="-5" y="-159"/>
      <point x="31" y="-197"/>
      <point x="87" y="-197" type="curve" smooth="yes"/>
      <point x="123" y="-197"/>
      <point x="155" y="-181"/>
      <point x="192" y="-149" type="curve"/>
      <point x="179" y="-87" type="line"/>
      <point x="171" y="-87" type="line"/>
      <point x="151" y="-105"/>
      <point x="127" y="-114"/>
      <point x="109" y="-114" type="curve" smooth="yes"/>
      <point x="87" y="-114"/>
      <point x="76" y="-102"/>
      <point x="76" y="-84" type="curve" smooth="yes"/>
      <point x="76" y="-64"/>
      <point x="87" y="-39"/>
      <point x="129" y="13" type="curve"/>
    </contour>
    <component base="I"/>
  </outline>
</glyph>
<glyph name="dotlessi" format="1">
  <advance width="245"/>
  <unicode hex="0131"/>
  <outline>
    <contour>
      <point x="77" y="462" type="line"/>
      <point x="73" y="354" type="line"/>
      <point x="24" y="-4" type="line"/>
      <point x="168" y="6" type="line"/>
      <point x="173" y="114" type="line"/>
      <point x="220" y="472" type="line"/>
    </contour>
    <contour>
      <point x="193" y="10" type="move" name="ogonek"/>
    </contour>
    <contour>
      <point x="149" y="467" type="move" name="top"/>
    </contour>
  </outline>
</glyph>
<glyph name="lcaron" format="1">
  <advance width="331"/>
  <unicode hex="013E"/>
  <outline>
    <contour>
      <point x="264" y="104" type="move"/>
    </contour>
    <component base="l"/>
    <component base="caron.alt" xOffset="89" yOffset="-92"/>
  </outline>
</glyph>
<glyph name="ldot" format="1">
  <advance width="344"/>
  <unicode hex="0140"/>
  <outline>
    <contour>
      <point x="176" y="-78" type="move"/>
    </contour>
    <component base="l"/>
    <component base="periodcentered" xOffset="186" yOffset="49"/>
  </outline>
</glyph>
<glyph name="lslash" format="1">
  <advance width="306"/>
  <unicode hex="0142"/>
  <outline>
    <contour>
      <point x="188" y="415" type="line"/>
      <point x="186" y="428" type="line"/>
      <point x="1" y="340" type="line"/>
      <point x="21" y="252" type="line"/>
      <point x="28" y="250" type="line"/>
      <point x="180" y="322" type="line"/>
      <point x="182" y="308" type="line"/>
      <point x="336" y="383" type="line"/>
      <point x="315" y="470" type="line"/>
      <point x="308" y="474" type="line"/>
    </contour>
    <contour>
      <point x="134" y="694" type="line"/>
      <point x="132" y="587" type="line"/>
      <point x="50" y="-4" type="line"/>
      <point x="195" y="6" type="line"/>
      <point x="198" y="114" type="line"/>
      <point x="279" y="704" type="line"/>
    </contour>
    <contour>
      <point x="117" y="0" type="move" name="bottom"/>
    </contour>
    <contour>
      <point x="198" y="700" type="move" name="top"/>
    </contour>
    <contour>
      <point x="276" y="467" type="move" name="topright"/>
    </contour>
  </outline>
</glyph>
<glyph name="eng" format="1">
  <advance width="517"/>
  <unicode hex="014B"/>
  <outline>
    <contour>
      <point x="215" y="104" type="move"/>
    </contour>
    <contour>
      <point x="74" y="354" type="line"/>
      <point x="25" y="-4" type="line"/>
      <point x="170" y="6" type="line"/>
      <point x="174" y="114" type="line"/>
      <point x="222" y="472" type="line"/>
      <point x="78" y="462" type="line"/>
    </contour>
    <contour>
      <point x="345" y="470" type="line"/>
      <point x="299" y="429"/>
      <point x="259" y="380"/>
      <point x="212" y="310" type="curve"/>
      <point x="194" y="310" type="line"/>
      <point x="164" y="125" type="line"/>
      <point x="231" y="261"/>
      <point x="284" y="320"/>
      <point x="312" y="320" type="curve" smooth="yes"/>
      <point x="323" y="320"/>
      <point x="329" y="313"/>
      <point x="328" y="294" type="curve"/>
      <point x="327" y="283" type="line"/>
      <point x="285" y="21" type="line"/>
      <point x="431" y="114" type="line"/>
      <point x="472" y="355" type="line"/>
      <point x="473" y="368" type="line"/>
      <point x="474" y="421"/>
      <point x="420" y="458"/>
      <point x="357" y="471" type="curve"/>
    </contour>
    <contour>
      <point x="286" y="21" type="line"/>
      <point x="277" y="-47"/>
      <point x="248" y="-87"/>
      <point x="195" y="-117" type="curve"/>
      <point x="193" y="-131" type="line"/>
      <point x="237" y="-196" type="line"/>
      <point x="352" y="-144"/>
      <point x="406" y="-78"/>
      <point x="422" y="28" type="curve"/>
      <point x="432" y="114" type="line"/>
    </contour>
  </outline>
</glyph>
<glyph name="OE" format="1">
  <advance width="864"/>
  <unicode hex="0152"/>
  <outline>
    <contour>
      <point x="173" y="657"/>
      <point x="31" y="507"/>
      <point x="31" y="262" type="curve" smooth="yes"/>
      <point x="31" y="89"/>
      <point x="124" y="-12"/>
      <point x="293" y="-12" type="curve" smooth="yes"/>
      <point x="368" y="-12"/>
      <point x="444" y="2"/>
      <point x="505" y="0" type="curve"/>
      <point x="808" y="0" type="line"/>
      <point x="833" y="117" type="line"/>
      <point x="825" y="129" type="line"/>
      <point x="664" y="123" type="line"/>
      <point x="561" y="124" type="line"/>
      <point x="570" y="205" type="line"/>
      <point x="576" y="264" type="line"/>
      <point x="671" y="265" type="line"/>
      <point x="786" y="262" type="line"/>
      <point x="811" y="379" type="line"/>
      <point x="803" y="390" type="line"/>
      <point x="697" y="387" type="line"/>
      <point x="596" y="388" type="line"/>
      <point x="613" y="521" type="line"/>
      <point x="725" y="521" type="line"/>
      <point x="876" y="516" type="line"/>
      <point x="901" y="633" type="line"/>
      <point x="893" y="645" type="line"/>
      <point x="585" y="645" type="line" smooth="yes"/>
      <point x="527" y="645"/>
      <point x="471" y="657"/>
      <point x="399" y="657" type="curve" smooth="yes"/>
    </contour>
    <contour>
      <point x="409" y="529"/>
      <point x="436" y="523"/>
      <point x="447" y="514" type="curve" smooth="yes"/>
      <point x="454" y="508"/>
      <point x="455" y="495"/>
      <point x="453" y="469" type="curve" smooth="yes"/>
      <point x="421" y="168" type="line" smooth="yes"/>
      <point x="419" y="143"/>
      <point x="411" y="129"/>
      <point x="398" y="121" type="curve" smooth="yes"/>
      <point x="385" y="113"/>
      <point x="358" y="108"/>
      <point x="322" y="108" type="curve" smooth="yes"/>
      <point x="236" y="108"/>
      <point x="198" y="157"/>
      <point x="198" y="265" type="curve" smooth="yes"/>
      <point x="198" y="462"/>
      <point x="258" y="529"/>
      <point x="370" y="529" type="curve" smooth="yes"/>
    </contour>
    <contour>
      <point x="633" y="645" type="move" name="top"/>
    </contour>
  </outline>
</glyph>
<glyph name="Tbar" format="1">
  <advance width="501"/>
  <unicode hex="0166"/>
  <outline>
    <contour>
      <point x="97" y="339" type="line"/>
      <point x="91" y="266" type="line"/>
      <point x="101" y="255" type="line"/>
      <point x="429" y="255" type="line"/>
      <point x="435" y="328" type="line"/>
      <point x="425" y="339" type="line"/>
    </contour>
    <component base="T"/>
  </outline>
</glyph>
<glyph name="uogonek" format="1">
  <advance width="500"/>
  <unicode hex="0173"/>
  <outline>
    <contour>
      <point x="298" y="28" type="line"/>
      <point x="238" y="-35"/>
      <point x="219" y="-67"/>
      <point x="219" y="-106" type="curve" smooth="yes"/>
      <point x="219" y="-161"/>
      <point x="256" y="-197"/>
      <point x="310" y="-197" type="curve" smooth="yes"/>
      <point x="348" y="-197"/>
      <point x="375" y="-180"/>
      <point x="408" y="-150" type="curve"/>
      <point x="395" y="-88" type="line"/>
      <point x="387" y="-88" type="line"/>
      <point x="369" y="-105"/>
      <point x="351" y="-114"/>
      <point x="334" y="-114" type="curve" smooth="yes"/>
      <point x="312" y="-114"/>
      <point x="300" y="-101"/>
      <point x="300" y="-84" type="curve" smooth="yes"/>
      <point x="300" y="-63"/>
      <point x="315" y="-42"/>
      <point x="375" y="20" type="curve"/>
    </contour>
    <component base="u"/>
  </outline>
</glyph>
<glyph name="Ohorn" format="1">
  <advance width="647"/>
  <unicode hex="01A0"/>
  <outline>
    <contour>
      <point x="635" y="781"/>
      <point x="605" y="766"/>
      <point x="583" y="751" type="curve"/>
      <point x="579" y="739" type="line"/>
      <point x="593" y="724"/>
      <point x="601" y="702"/>
      <point x="601" y="682" type="curve" smooth="yes"/>
      <point x="601" y="646"/>
      <point x="577" y="626"/>
      <point x="541" y="626" type="curve" smooth="yes"/>
      <point x="499" y="626"/>
      <point x="456" y="655"/>
      <point x="368" y="655" type="curve" smooth="yes"/>
      <point x="170" y="655"/>
      <point x="32" y="504"/>
      <point x="32" y="274" type="curve" smooth="yes"/>
      <point x="32" y="85"/>
      <point x="126" y="-11"/>
      <point x="291" y="-11" type="curve" smooth="yes"/>
      <point x="506" y="-11"/>
      <point x="632" y="151"/>
      <point x="632" y="381" type="curve" smooth="yes"/>
      <point x="632" y="454"/>
      <point x="619" y="508"/>
      <point x="589" y="555" type="curve"/>
      <point x="665" y="568"/>
      <point x="723" y="623"/>
      <point x="723" y="697" type="curve" smooth="yes"/>
      <point x="723" y="747"/>
      <point x="697" y="781"/>
      <point x="660" y="781" type="curve" smooth="yes"/>
    </contour>
    <contour>
      <point x="442" y="527"/>
      <point x="466" y="477"/>
      <point x="466" y="365" type="curve" smooth="yes"/>
      <point x="466" y="174"/>
      <point x="406" y="109"/>
      <point x="309" y="109" type="curve" smooth="yes"/>
      <point x="221" y="109"/>
      <point x="197" y="159"/>
      <point x="197" y="273" type="curve" smooth="yes"/>
      <point x="197" y="462"/>
      <point x="256" y="527"/>
      <point x="354" y="527" type="curve" smooth="yes"/>
    </contour>
    <contour>
      <point x="371" y="645" type="move" name="top"/>
    </contour>
  </outline>
</glyph>
<glyph name="ohorn" format="1">
  <advance width="464"/>
  <unicode hex="01A1"/>
  <outline>
    <contour>
      <point x="440" y="604"/>
      <point x="414" y="590"/>
      <point x="388" y="569" type="curve"/>
      <point x="385" y="556" type="line"/>
      <point x="404" y="539"/>
      <point x="415" y="521"/>
      <point x="415" y="498" type="curve" smooth="yes"/>
      <point x="415" y="472"/>
      <point x="401" y="455"/>
      <point x="376" y="455" type="curve" smooth="yes"/>
      <point x="354" y="455"/>
      <point x="322" y="471"/>
      <point x="296" y="477" type="curve"/>
      <point x="405" y="388" type="line"/>
      <point x="467" y="390"/>
      <point x="537" y="451"/>
      <point x="537" y="518" type="curve" smooth="yes"/>
      <point x="537" y="569"/>
      <point x="502" y="604"/>
      <point x="465" y="604" type="curve" smooth="yes"/>
    </contour>
    <contour>
      <point x="121" y="469"/>
      <point x="22" y="350"/>
      <point x="22" y="172" type="curve" smooth="yes"/>
      <point x="22" y="65"/>
      <point x="73" y="10"/>
      <point x="161" y="-9" type="curve"/>
      <point x="174" y="-11" type="line"/>
      <point x="336" y="-1"/>
      <point x="434" y="116"/>
      <point x="434" y="306" type="curve" smooth="yes"/>
      <point x="434" y="358"/>
      <point x="419" y="397"/>
      <point x="393" y="426" type="curve"/>
      <point x="296" y="477" type="line"/>
      <point x="282" y="478" type="line"/>
    </contour>
    <contour>
      <point x="284" y="367"/>
      <point x="295" y="349"/>
      <point x="295" y="297" type="curve" smooth="yes"/>
      <point x="295" y="163"/>
      <point x="273" y="97"/>
      <point x="201" y="97" type="curve" smooth="yes"/>
      <point x="170" y="97"/>
      <point x="159" y="116"/>
      <point x="159" y="169" type="curve" smooth="yes"/>
      <point x="159" y="302"/>
      <point x="181" y="367"/>
      <point x="254" y="367" type="curve" smooth="yes"/>
    </contour>
    <contour>
      <point x="243" y="467" type="move" name="top"/>
    </contour>
  </outline>
</glyph>
<glyph name="oogonek" format="1">
  <advance width="457"/>
  <unicode hex="01EB"/>
  <outline>
    <contour>
      <point x="253" y="70" type="line"/>
      <point x="187" y="-21" type="line" smooth="yes"/>
      <point x="166" y="-50"/>
      <point x="157" y="-79"/>
      <point x="157" y="-106" type="curve" smooth="yes"/>
      <point x="157" y="-158"/>
      <point x="193" y="-197"/>
      <point x="253" y="-197" type="curve" smooth="yes"/>
      <point x="289" y="-197"/>
      <point x="320" y="-182"/>
      <point x="359" y="-149" type="curve"/>
      <point x="347" y="-88" type="line"/>
      <point x="339" y="-88" type="line"/>
      <point x="318" y="-105"/>
      <point x="295" y="-114"/>
      <point x="276" y="-114" type="curve" smooth="yes"/>
      <point x="250" y="-114"/>
      <point x="238" y="-99"/>
      <point x="238" y="-79" type="curve" smooth="yes"/>
      <point x="238" y="-64"/>
      <point x="244" y="-49"/>
      <point x="255" y="-33" type="curve" smooth="yes"/>
      <point x="322" y="70" type="line"/>
    </contour>
    <component base="o"/>
    <contour>
      <point x="361" y="10" type="move" name="_ogonek"/>
    </contour>
  </outline>
</glyph>
<glyph name="firsttonechinese" format="1">
  <advance width="390"/>
  <unicode hex="02C9"/>
  <outline>
    <contour>
      <point x="103" y="671" type="line"/>
      <point x="95" y="585" type="line"/>
      <point x="105" y="575" type="line"/>
      <point x="383" y="575" type="line"/>
      <point x="391" y="661" type="line"/>
      <point x="381" y="671" type="line"/>
    </contour>
  </outline>
</glyph>
<glyph name="dotaccent" format="1">
  <advance width="390"/>
  <unicode hex="02D9"/>
  <outline>
    <contour>
      <point x="195" y="708"/>
      <point x="163" y="675"/>
      <point x="163" y="623" type="curve" smooth="yes"/>
      <point x="163" y="574"/>
      <point x="190" y="545"/>
      <point x="240" y="545" type="curve" smooth="yes"/>
      <point x="290" y="545"/>
      <point x="322" y="578"/>
      <point x="322" y="630" type="curve" smooth="yes"/>
      <point x="322" y="679"/>
      <point x="294" y="708"/>
      <point x="246" y="708" type="curve" smooth="yes"/>
    </contour>
    <contour>
      <point x="223" y="467" type="move" name="_top"/>
    </contour>
  </outline>
</glyph>
<glyph name="ring" format="1">
  <advance width="390"/>
  <unicode hex="02DA"/>
  <outline>
    <contour>
      <point x="180" y="736"/>
      <point x="144" y="699"/>
      <point x="144" y="634" type="curve" smooth="yes"/>
      <point x="144" y="570"/>
      <point x="180" y="536"/>
      <point x="242" y="536" type="curve" smooth="yes"/>
      <point x="307" y="536"/>
      <point x="346" y="573"/>
      <point x="346" y="640" type="curve" smooth="yes"/>
      <point x="346" y="701"/>
      <point x="313" y="736"/>
      <point x="248" y="736" type="curve" smooth="yes"/>
    </contour>
    <contour>
      <point x="271" y="671"/>
      <point x="283" y="659"/>
      <point x="283" y="634" type="curve" smooth="yes"/>
      <point x="283" y="609"/>
      <point x="271" y="599"/>
      <point x="245" y="599" type="curve" smooth="yes"/>
      <point x="219" y="599"/>
      <point x="206" y="610"/>
      <point x="206" y="637" type="curve" smooth="yes"/>
      <point x="206" y="660"/>
      <point x="217" y="671"/>
      <point x="244" y="671" type="curve" smooth="yes"/>
    </contour>
    <contour>
      <point x="224" y="467" type="move" name="_top"/>
    </contour>
  </outline>
</glyph>
<glyph name="ogonek" format="1">
  <advance width="390"/>
  <unicode hex="02DB"/>
  <outline>
    <contour>
      <point x="146" y="70" type="line"/>
      <point x="80" y="-21" type="line" smooth="yes"/>
      <point x="59" y="-50"/>
      <point x="50" y="-79"/>
      <point x="50" y="-106" type="curve" smooth="yes"/>
      <point x="50" y="-157"/>
      <point x="86" y="-197"/>
      <point x="146" y="-197" type="curve" smooth="yes"/>
      <point x="182" y="-197"/>
      <point x="213" y="-182"/>
      <point x="252" y="-149" type="curve"/>
      <point x="240" y="-88" type="line"/>
      <point x="232" y="-88" type="line"/>
      <point x="211" y="-104"/>
      <point x="188" y="-114"/>
      <point x="169" y="-114" type="curve" smooth="yes"/>
      <point x="143" y="-114"/>
      <point x="131" y="-99"/>
      <point x="131" y="-78" type="curve" smooth="yes"/>
      <point x="131" y="-64"/>
      <point x="137" y="-49"/>
      <point x="148" y="-33" type="curve" smooth="yes"/>
      <point x="215" y="70" type="line"/>
    </contour>
    <contour>
      <point x="251" y="10" type="move" name="_ogonek"/>
    </contour>
  </outline>
</glyph>
<glyph name="hungarumlaut" format="1">
  <advance width="390"/>
  <unicode hex="02DD"/>
  <outline>
    <contour>
      <point x="265" y="521" type="line"/>
      <point x="278" y="524" type="line"/>
      <point x="327" y="574"/>
      <point x="376" y="625"/>
      <point x="423" y="678" type="curve"/>
      <point x="421" y="690" type="line"/>
      <point x="349" y="740" type="line"/>
      <point x="338" y="738" type="line"/>
      <point x="299" y="677"/>
      <point x="260" y="618"/>
      <point x="218" y="559" type="curve"/>
    </contour>
    <contour>
      <point x="108" y="521" type="line"/>
      <point x="121" y="524" type="line"/>
      <point x="170" y="574"/>
      <point x="219" y="625"/>
      <point x="266" y="678" type="curve"/>
      <point x="264" y="690" type="line"/>
      <point x="192" y="740" type="line"/>
      <point x="181" y="738" type="line"/>
      <point x="142" y="677"/>
      <point x="103" y="618"/>
      <point x="61" y="559" type="curve"/>
    </contour>
    <contour>
      <point x="198" y="467" type="move" name="_top"/>
    </contour>
  </outline>
</glyph>
<glyph name="Delta" format="1">
  <advance width="600"/>
  <unicode hex="0394"/>
  <outline>
    <contour>
      <point x="262" y="645" type="line"/>
      <point x="-22" y="0" type="line"/>
      <point x="559" y="0" type="line"/>
      <point x="452" y="645" type="line"/>
    </contour>
    <contour>
      <point x="390" y="118" type="line"/>
      <point x="171" y="118" type="line"/>
      <point x="331" y="499" type="line"/>
      <point x="341" y="499" type="line"/>
    </contour>
  </outline>
</glyph>
<glyph name="Omega" format="1">
  <advance width="746"/>
  <unicode hex="03A9"/>
  <outline>
    <contour>
      <point x="209" y="655"/>
      <point x="92" y="516"/>
      <point x="92" y="341" type="curve" smooth="yes"/>
      <point x="92" y="266"/>
      <point x="115" y="189"/>
      <point x="165" y="123" type="curve"/>
      <point x="163" y="118" type="line"/>
      <point x="117" y="118" type="line"/>
      <point x="25" y="125" type="line"/>
      <point x="-8" y="5" type="line"/>
      <point x="-0" y="-5" type="line"/>
      <point x="101" y="0" type="line"/>
      <point x="271" y="0" type="line"/>
      <point x="307" y="-3" type="line"/>
      <point x="315" y="3" type="line"/>
      <point x="326" y="97" type="line"/>
      <point x="279" y="155"/>
      <point x="255" y="229"/>
      <point x="255" y="318" type="curve" smooth="yes"/>
      <point x="255" y="460"/>
      <point x="311" y="528"/>
      <point x="407" y="528" type="curve" smooth="yes"/>
      <point x="495" y="528"/>
      <point x="522" y="471"/>
      <point x="522" y="385" type="curve" smooth="yes"/>
      <point x="522" y="288"/>
      <point x="486" y="189"/>
      <point x="386" y="97" type="curve"/>
      <point x="375" y="3" type="line"/>
      <point x="381" y="-3" type="line"/>
      <point x="418" y="0" type="line"/>
      <point x="561" y="0" type="line"/>
      <point x="681" y="-7" type="line"/>
      <point x="714" y="118" type="line"/>
      <point x="706" y="127" type="line"/>
      <point x="622" y="118" type="line"/>
      <point x="556" y="118" type="line"/>
      <point x="553" y="123" type="line"/>
      <point x="648" y="217"/>
      <point x="690" y="314"/>
      <point x="690" y="411" type="curve" smooth="yes"/>
      <point x="690" y="556"/>
      <point x="597" y="655"/>
      <point x="420" y="655" type="curve" smooth="yes"/>
    </contour>
    <contour>
      <point x="1" y="645" type="move" name="topleft"/>
    </contour>
  </outline>
</glyph>
<glyph name="pi" format="1">
  <advance width="686"/>
  <unicode hex="03C0"/>
  <outline>
    <contour>
      <point x="553" y="507" type="line"/>
      <point x="141" y="507" type="line"/>
      <point x="122" y="499" type="line"/>
      <point x="11" y="376" type="line"/>
      <point x="9" y="360" type="line"/>
      <point x="48" y="302" type="line"/>
      <point x="64" y="302" type="line"/>
      <point x="104" y="340"/>
      <point x="138" y="384"/>
      <point x="168" y="384" type="curve" smooth="yes"/>
      <point x="433" y="384" type="line"/>
      <point x="400" y="112" type="line" smooth="yes"/>
      <point x="389" y="21"/>
      <point x="436" y="-8"/>
      <point x="491" y="-8" type="curve" smooth="yes"/>
      <point x="511" y="-8"/>
      <point x="538" y="1"/>
      <point x="571" y="18" type="curve"/>
      <point x="597" y="101" type="line"/>
      <point x="588" y="109" type="line"/>
      <point x="576" y="105"/>
      <point x="565" y="102"/>
      <point x="557" y="102" type="curve" smooth="yes"/>
      <point x="543" y="102"/>
      <point x="538" y="112"/>
      <point x="541" y="134" type="curve" smooth="yes"/>
      <point x="577" y="383" type="line"/>
      <point x="652" y="382" type="line"/>
      <point x="677" y="498" type="line"/>
      <point x="669" y="510" type="line"/>
    </contour>
    <contour>
      <point x="185" y="466" type="line"/>
      <point x="156" y="191" type="line"/>
      <point x="117" y="-88" type="line"/>
      <point x="267" y="-88" type="line"/>
      <point x="299" y="207" type="line"/>
      <point x="333" y="476" type="line"/>
    </contour>
  </outline>
</glyph>
<glyph name="uni1E9E" format="1">
  <advance width="675"/>
  <unicode hex="1E9E"/>
  <outline>
    <contour>
      <point x="210" y="655"/>
      <point x="99" y="558"/>
      <point x="84" y="411" type="curve" smooth="yes"/>
      <point x="60" y="190" type="line"/>
      <point x="28" y="0" type="line"/>
      <point x="187" y="0" type="line"/>
      <point x="206" y="207" type="line"/>
      <point x="235" y="411" type="line"/>
      <point x="245" y="489"/>
      <point x="284" y="528"/>
      <point x="366" y="528" type="curve" smooth="yes"/>
      <point x="398" y="528"/>
      <point x="424" y="522"/>
      <point x="454" y="509" type="curve"/>
      <point x="311" y="334" type="line"/>
      <point x="312" y="312" type="line"/>
      <point x="451" y="244"/>
      <point x="494" y="207"/>
      <point x="494" y="167" type="curve" smooth="yes"/>
      <point x="494" y="133"/>
      <point x="469" y="110"/>
      <point x="431" y="110" type="curve" smooth="yes"/>
      <point x="391" y="110"/>
      <point x="339" y="136"/>
      <point x="293" y="182" type="curve"/>
      <point x="275" y="173" type="line"/>
      <point x="236" y="30" type="line"/>
      <point x="286" y="4"/>
      <point x="349" y="-10"/>
      <point x="407" y="-10" type="curve" smooth="yes"/>
      <point x="537" y="-10"/>
      <point x="655" y="61"/>
      <point x="655" y="198" type="curve" smooth="yes"/>
      <point x="655" y="281"/>
      <point x="604" y="318"/>
      <point x="505" y="382" type="curve"/>
      <point x="655" y="564" type="line"/>
      <point x="652" y="585" type="line"/>
      <point x="564" y="629"/>
      <point x="489" y="655"/>
      <point x="395" y="655" type="curve" smooth="yes"/>
    </contour>
  </outline>
</glyph>
<glyph name="guilsinglright" format="1">
  <advance width="252"/>
  <unicode hex="203A"/>
  <outline>
    <contour>
      <point x="45" y="382" type="line"/>
      <point x="40" y="368" type="line"/>
      <point x="119" y="231" type="line"/>
      <point x="7" y="94" type="line"/>
      <point x="8" y="80" type="line"/>
      <point x="76" y="42" type="line"/>
      <point x="230" y="216" type="line"/>
      <point x="233" y="239" type="line"/>
      <point x="123" y="421" type="line"/>
    </contour>
  </outline>
</glyph>
<glyph name="estimated" format="1">
  <advance width="792"/>
  <unicode hex="212E"/>
  <outline>
    <contour>
      <point x="214" y="651"/>
      <point x="48" y="503"/>
      <point x="48" y="319" type="curve" smooth="yes"/>
      <point x="48" y="136"/>
      <point x="214" y="-12"/>
      <point x="417" y="-12" type="curve" smooth="yes"/>
      <point x="535" y="-12"/>
      <point x="642" y="39"/>
      <point x="709" y="117" type="curve" smooth="yes"/>
      <point x="655" y="117" type="line" smooth="yes"/>
      <point x="598" y="50"/>
      <point x="513" y="8"/>
      <point x="418" y="8" type="curve" smooth="yes"/>
      <point x="329" y="8"/>
      <point x="248" y="45"/>
      <point x="192" y="105" type="curve" smooth="yes"/>
      <point x="187" y="111"/>
      <point x="183" y="118"/>
      <point x="183" y="126" type="curve" smooth="yes"/>
      <point x="183" y="307" type="line" smooth="yes"/>
      <point x="183" y="310"/>
      <point x="185" y="311"/>
      <point x="188" y="311" type="curve" smooth="yes"/>
      <point x="785" y="311" type="line"/>
      <point x="785" y="319" type="line" smooth="yes"/>
      <point x="785" y="503"/>
      <point x="620" y="651"/>
      <point x="417" y="651" type="curve" smooth="yes"/>
    </contour>
    <contour>
      <point x="505" y="631"/>
      <point x="584" y="595"/>
      <point x="641" y="538" type="curve" smooth="yes"/>
      <point x="647" y="532"/>
      <point x="651" y="525"/>
      <point x="651" y="516" type="curve" smooth="yes"/>
      <point x="651" y="334" type="line" smooth="yes"/>
      <point x="651" y="331"/>
      <point x="649" y="329"/>
      <point x="646" y="329" type="curve" smooth="yes"/>
      <point x="188" y="329" type="line" smooth="yes"/>
      <point x="185" y="329"/>
      <point x="183" y="331"/>
      <point x="183" y="334" type="curve" smooth="yes"/>
      <point x="183" y="512" type="line" smooth="yes"/>
      <point x="183" y="521"/>
      <point x="187" y="529"/>
      <point x="193" y="535" type="curve" smooth="yes"/>
      <point x="250" y="594"/>
      <point x="329" y="631"/>
      <point x="418" y="631" type="curve" smooth="yes"/>
    </contour>
  </outline>
</glyph>
<glyph name="minus" format="1">
  <advance width="478"/>
  <unicode hex="2212"/>
  <outline>
    <contour>
      <point x="30" y="311" type="line"/>
      <point x="22" y="217" type="line"/>
      <point x="32" y="206" type="line"/>
      <point x="454" y="206" type="line"/>
      <point x="462" y="300" type="line"/>
      <point x="452" y="311" type="line"/>
    </contour>
  </outline>
</glyph>
<glyph name="radical" format="1">
  <advance width="500"/>
  <unicode hex="221A"/>
  <outline>
    <contour>
      <point x="497" y="710" type="line"/>
      <point x="483" y="700" type="line"/>
      <point x="239" y="134" type="line"/>
      <point x="230" y="134" type="line"/>
      <point x="193" y="461" type="line"/>
      <point x="188" y="467" type="line"/>
      <point x="0" y="467" type="line"/>
      <point x="-16" y="367" type="line"/>
      <point x="-12" y="361" type="line"/>
      <point x="81" y="361" type="line"/>
      <point x="129" y="0" type="line"/>
      <point x="296" y="0" type="line"/>
      <point x="608" y="710" type="line"/>
    </contour>
  </outline>
</glyph>
<glyph name="notequal" format="1">
  <advance width="478"/>
  <unicode hex="2260"/>
  <outline>
    <contour>
      <point x="287" y="547" type="line"/>
      <point x="84" y="-22" type="line"/>
      <point x="90" y="-33" type="line"/>
      <point x="187" y="-33" type="line"/>
      <point x="390" y="537" type="line"/>
      <point x="382" y="547" type="line"/>
    </contour>
    <component base="equal" xOffset="-1"/>
  </outline>
</glyph>
<glyph name="brevetilde" format="1">
  <advance width="390"/>
  <outline>
    <contour>
      <point x="383" y="868" type="line"/>
      <point x="361" y="841"/>
      <point x="344" y="817"/>
      <point x="323" y="817" type="curve" smooth="yes"/>
      <point x="300" y="817"/>
      <point x="226" y="843"/>
      <point x="182" y="850" type="curve"/>
      <point x="169" y="845" type="line"/>
      <point x="101" y="755" type="line"/>
      <point x="101" y="743" type="line"/>
      <point x="143" y="701" type="line"/>
      <point x="155" y="701" type="line"/>
      <point x="177" y="727"/>
      <point x="194" y="752"/>
      <point x="214" y="752" type="curve" smooth="yes"/>
      <point x="239" y="752"/>
      <point x="311" y="724"/>
      <point x="356" y="719" type="curve"/>
      <point x="369" y="723" type="line"/>
      <point x="436" y="814" type="line"/>
      <point x="436" y="826" type="line"/>
      <point x="395" y="868" type="line"/>
    </contour>
    <contour>
      <point x="344" y="672" type="line"/>
      <point x="322" y="640"/>
      <point x="286" y="622"/>
      <point x="241" y="622" type="curve" smooth="yes"/>
      <point x="197" y="622"/>
      <point x="161" y="639"/>
      <point x="147" y="672" type="curve"/>
      <point x="126" y="672" type="line"/>
      <point x="88" y="627" type="line"/>
      <point x="107" y="559"/>
      <point x="159" y="521"/>
      <point x="235" y="521" type="curve" smooth="yes"/>
      <point x="306" y="521"/>
      <point x="359" y="559"/>
      <point x="391" y="627" type="curve" smooth="yes"/>
      <point x="364" y="672" type="line"/>
    </contour>
    <contour>
      <point x="221" y="467" type="move" name="_top"/>
    </contour>
  </outline>
</glyph>
<glyph name="circumflexhookabove" format="1">
  <advance width="390"/>
  <outline>
    <contour>
      <point x="227" y="698" type="line"/>
      <point x="183" y="661"/>
      <point x="134" y="625"/>
      <point x="80" y="589" type="curve"/>
      <point x="101" y="528" type="line"/>
      <point x="116" y="528" type="line"/>
      <point x="156" y="549"/>
      <point x="198" y="569"/>
      <point x="238" y="590" type="curve"/>
      <point x="273" y="569"/>
      <point x="305" y="549"/>
      <point x="341" y="528" type="curve"/>
      <point x="356" y="528" type="line"/>
      <point x="391" y="589" type="line"/>
      <point x="341" y="625"/>
      <point x="296" y="661"/>
      <point x="257" y="698" type="curve"/>
    </contour>
    <contour>
      <point x="301" y="884"/>
      <point x="261" y="864"/>
      <point x="232" y="832" type="curve"/>
      <point x="255" y="794" type="line"/>
      <point x="275" y="809"/>
      <point x="299" y="819"/>
      <point x="318" y="819" type="curve" smooth="yes"/>
      <point x="334" y="819"/>
      <point x="345" y="812"/>
      <point x="345" y="797" type="curve" smooth="yes"/>
      <point x="345" y="778"/>
      <point x="327" y="750"/>
      <point x="295" y="728" type="curve"/>
      <point x="339" y="660" type="line"/>
      <point x="391" y="691" type="line"/>
      <point x="368" y="729" type="line"/>
      <point x="408" y="765"/>
      <point x="423" y="785"/>
      <point x="423" y="810" type="curve" smooth="yes"/>
      <point x="423" y="854"/>
      <point x="386" y="884"/>
      <point x="340" y="884" type="curve" smooth="yes"/>
    </contour>
    <contour>
      <point x="221" y="467" type="move" name="_top"/>
    </contour>
  </outline>
</glyph>
<glyph name="eight.tf" format="1">
  <advance width="476"/>
  <outline>
    <contour>
      <point x="219" y="477" type="move"/>
    </contour>
    <contour>
      <point x="151" y="596"/>
      <point x="67" y="524"/>
      <point x="67" y="418" type="curve" smooth="yes"/>
      <point x="67" y="351"/>
      <point x="100" y="315"/>
      <point x="141" y="289" type="curve"/>
      <point x="140" y="282" type="line"/>
      <point x="66" y="252"/>
      <point x="20" y="212"/>
      <point x="20" y="136" type="curve" smooth="yes"/>
      <point x="20" y="48"/>
      <point x="95" y="-10"/>
      <point x="220" y="-10" type="curve" smooth="yes"/>
      <point x="351" y="-10"/>
      <point x="438" y="64"/>
      <point x="438" y="171" type="curve" smooth="yes"/>
      <point x="438" y="241"/>
      <point x="401" y="276"/>
      <point x="353" y="305" type="curve"/>
      <point x="354" y="312" type="line"/>
      <point x="412" y="344"/>
      <point x="453" y="388"/>
      <point x="453" y="456" type="curve" smooth="yes"/>
      <point x="453" y="542"/>
      <point x="387" y="596"/>
      <point x="277" y="596" type="curve" smooth="yes"/>
    </contour>
    <contour>
      <point x="274" y="221"/>
      <point x="310" y="202"/>
      <point x="310" y="161" type="curve" smooth="yes"/>
      <point x="310" y="125"/>
      <point x="279" y="93"/>
      <point x="224" y="93" type="curve" smooth="yes"/>
      <point x="175" y="93"/>
      <point x="150" y="117"/>
      <point x="150" y="159" type="curve" smooth="yes"/>
      <point x="150" y="203"/>
      <point x="180" y="223"/>
      <point x="227" y="241" type="curve"/>
    </contour>
    <contour>
      <point x="308" y="490"/>
      <point x="330" y="470"/>
      <point x="330" y="435" type="curve" smooth="yes"/>
      <point x="330" y="397"/>
      <point x="303" y="372"/>
      <point x="267" y="350" type="curve"/>
      <point x="224" y="368"/>
      <point x="195" y="387"/>
      <point x="195" y="427" type="curve" smooth="yes"/>
      <point x="195" y="463"/>
      <point x="222" y="490"/>
      <point x="268" y="490" type="curve" smooth="yes"/>
    </contour>
  </outline>
</glyph>
<glyph name="f.l" format="1">
  <advance width="319"/>
  <outline>
    <contour>
      <point x="222" y="709"/>
      <point x="139" y="634"/>
      <point x="121" y="489" type="curve" smooth="yes"/>
      <point x="85" y="190" type="line"/>
      <point x="44" y="-115" type="line"/>
      <point x="188" y="-105" type="line"/>
      <point x="192" y="3" type="line"/>
      <point x="219" y="206" type="line"/>
      <point x="264" y="524" type="line" smooth="yes"/>
      <point x="274" y="580"/>
      <point x="300" y="605"/>
      <point x="340" y="605" type="curve" smooth="yes"/>
      <point x="369" y="605"/>
      <point x="402" y="596"/>
      <point x="450" y="575" type="curve"/>
      <point x="469" y="581" type="line"/>
      <point x="504" y="682" type="line"/>
      <point x="497" y="693" type="line"/>
      <point x="367" y="709" type="line"/>
    </contour>
    <contour>
      <point x="45" y="458" type="line"/>
      <point x="35" y="383" type="line"/>
      <point x="42" y="374" type="line"/>
      <point x="352" y="374" type="line"/>
      <point x="363" y="446" type="line"/>
      <point x="353" y="458" type="line"/>
    </contour>
  </outline>
</glyph>
<glyph name="five.dnom" format="1">
  <advance width="327"/>
  <outline>
    <contour>
      <point x="234" y="388" type="line"/>
      <point x="123" y="388" type="line"/>
      <point x="81" y="390" type="line"/>
      <point x="66" y="377" type="line"/>
      <point x="42" y="180" type="line"/>
      <point x="48" y="172" type="line"/>
      <point x="120" y="160" type="line" smooth="yes"/>
      <point x="153" y="154"/>
      <point x="168" y="144"/>
      <point x="168" y="125" type="curve" smooth="yes"/>
      <point x="168" y="96"/>
      <point x="140" y="80"/>
      <point x="92" y="80" type="curve" smooth="yes"/>
      <point x="63" y="80"/>
      <point x="37" y="83"/>
      <point x="8" y="91" type="curve"/>
      <point x="-1" y="83" type="line"/>
      <point x="-4" y="1" type="line"/>
      <point x="21" y="-3"/>
      <point x="55" y="-7"/>
      <point x="81" y="-7" type="curve" smooth="yes"/>
      <point x="200" y="-7"/>
      <point x="285" y="54"/>
      <point x="285" y="145" type="curve" smooth="yes"/>
      <point x="285" y="195"/>
      <point x="253" y="225"/>
      <point x="184" y="240" type="curve" smooth="yes"/>
      <point x="142" y="249" type="line"/>
      <point x="149" y="299" type="line"/>
      <point x="217" y="299" type="line"/>
      <point x="286" y="291" type="line"/>
      <point x="295" y="299" type="line"/>
      <point x="318" y="385" type="line"/>
      <point x="311" y="392" type="line"/>
    </contour>
  </outline>
</glyph>
<glyph name="five.lf" format="1">
  <advance width="444"/>
  <outline>
    <contour>
      <point x="333" y="586" type="line"/>
      <point x="182" y="586" type="line"/>
      <point x="122" y="589" type="line"/>
      <point x="103" y="572" type="line"/>
      <point x="67" y="279" type="line"/>
      <point x="76" y="267" type="line"/>
      <point x="179" y="249" type="line" smooth="yes"/>
      <point x="229" y="242"/>
      <point x="252" y="222"/>
      <point x="252" y="189" type="curve" smooth="yes"/>
      <point x="252" y="139"/>
      <point x="208" y="106"/>
      <point x="136" y="106" type="curve" smooth="yes"/>
      <point x="96" y="106"/>
      <point x="58" y="113"/>
      <point x="16" y="128" type="curve"/>
      <point x="5" y="117" type="line"/>
      <point x="0" y="0" type="line"/>
      <point x="35" y="-7"/>
      <point x="81" y="-12"/>
      <point x="117" y="-12" type="curve" smooth="yes"/>
      <point x="281" y="-12"/>
      <point x="402" y="84"/>
      <point x="402" y="214" type="curve" smooth="yes"/>
      <point x="402" y="292"/>
      <point x="354" y="340"/>
      <point x="257" y="360" type="curve" smooth="yes"/>
      <point x="197" y="373" type="line"/>
      <point x="210" y="464" type="line"/>
      <point x="311" y="464" type="line"/>
      <point x="408" y="453" type="line"/>
      <point x="420" y="464" type="line"/>
      <point x="450" y="583" type="line"/>
      <point x="442" y="593" type="line"/>
    </contour>
  </outline>
</glyph>
<glyph name="hookabove" format="1">
  <advance width="390"/>
  <outline>
    <contour>
      <point x="223" y="752"/>
      <point x="181" y="731"/>
      <point x="150" y="698" type="curve"/>
      <point x="175" y="658" type="line"/>
      <point x="195" y="674"/>
      <point x="221" y="683"/>
      <point x="240" y="683" type="curve" smooth="yes"/>
      <point x="257" y="683"/>
      <point x="269" y="676"/>
      <point x="269" y="660" type="curve" smooth="yes"/>
      <point x="269" y="641"/>
      <point x="250" y="612"/>
      <point x="217" y="588" type="curve"/>
      <point x="263" y="517" type="line"/>
      <point x="317" y="549" type="line"/>
      <point x="292" y="589" type="line"/>
      <point x="335" y="627"/>
      <point x="350" y="648"/>
      <point x="350" y="675" type="curve" smooth="yes"/>
      <point x="350" y="721"/>
      <point x="312" y="752"/>
      <point x="263" y="752" type="curve" smooth="yes"/>
    </contour>
    <contour>
      <point x="266" y="467" type="move" name="_top"/>
    </contour>
  </outline>
</glyph>
<glyph name="hungarumlaut.cap" format="1">
  <advance width="390"/>
  <outline>
    <contour>
      <point x="275" y="536" type="line"/>
      <point x="288" y="540" type="line"/>
      <point x="331" y="578"/>
      <point x="373" y="617"/>
      <point x="415" y="658" type="curve"/>
      <point x="413" y="670" type="line"/>
      <point x="340" y="716" type="line"/>
      <point x="330" y="714" type="line"/>
      <point x="296" y="666"/>
      <point x="261" y="620"/>
      <point x="227" y="574" type="curve"/>
    </contour>
    <contour>
      <point x="115" y="536" type="line"/>
      <point x="128" y="540" type="line"/>
      <point x="172" y="578"/>
      <point x="214" y="617"/>
      <point x="255" y="658" type="curve"/>
      <point x="253" y="670" type="line"/>
      <point x="181" y="716" type="line"/>
      <point x="170" y="714" type="line"/>
      <point x="137" y="666"/>
      <point x="102" y="620"/>
      <point x="67" y="574" type="curve"/>
    </contour>
    <contour>
      <point x="221" y="467" type="move" name="_top"/>
    </contour>
  </outline>
</glyph>
<glyph name="k.sups" format="1">
  <advance width="352"/>
  <outline>
    <contour>
      <point x="275" y="645" type="line"/>
      <point x="241" y="619"/>
      <point x="208" y="580"/>
      <point x="175" y="530" type="curve"/>
      <point x="162" y="530" type="line"/>
      <point x="142" y="420" type="line"/>
      <point x="192" y="511"/>
      <point x="230" y="553"/>
      <point x="252" y="553" type="curve" smooth="yes"/>
      <point x="260" y="553"/>
      <point x="267" y="546"/>
      <point x="267" y="533" type="curve" smooth="yes"/>
      <point x="267" y="510"/>
      <point x="240" y="480"/>
      <point x="199" y="456" type="curve"/>
      <point x="195" y="443" type="line"/>
      <point x="212" y="403"/>
      <point x="231" y="362"/>
      <point x="251" y="322" type="curve"/>
      <point x="260" y="317" type="line"/>
      <point x="340" y="328" type="line"/>
      <point x="344" y="335" type="line"/>
      <point x="321" y="371"/>
      <point x="299" y="410"/>
      <point x="279" y="449" type="curve"/>
      <point x="328" y="482"/>
      <point x="363" y="522"/>
      <point x="363" y="569" type="curve" smooth="yes"/>
      <point x="363" y="614"/>
      <point x="330" y="637"/>
      <point x="284" y="645" type="curve"/>
    </contour>
    <contour>
      <point x="203" y="812" type="line"/>
      <point x="108" y="806" type="line"/>
      <point x="105" y="733" type="line"/>
      <point x="50" y="322" type="line"/>
      <point x="144" y="328" type="line"/>
      <point x="148" y="402" type="line"/>
      <point x="203" y="812" type="line"/>
    </contour>
    <contour>
      <point x="186" y="0" type="move" name="bottom"/>
    </contour>
    <contour>
      <point x="102" y="300" type="move" name="top"/>
    </contour>
    <contour>
      <point x="179" y="300" type="move" name="topright"/>
    </contour>
  </outline>
</glyph>
<glyph name="macron.i" format="1">
  <advance width="390"/>
  <outline>
    <contour>
      <point x="127" y="671" type="line"/>
      <point x="119" y="585" type="line"/>
      <point x="129" y="575" type="line"/>
      <point x="358" y="575" type="line"/>
      <point x="365" y="661" type="line"/>
      <point x="356" y="671" type="line"/>
    </contour>
    <contour>
      <point x="224" y="467" type="move" name="_top"/>
    </contour>
  </outline>
</glyph>
<glyph name="nine.dnom" format="1">
  <advance width="356"/>
  <outline>
    <contour>
      <point x="86" y="395"/>
      <point x="33" y="328"/>
      <point x="27" y="260" type="curve"/>
      <point x="21" y="199"/>
      <point x="58" y="143"/>
      <point x="137" y="143" type="curve" smooth="yes"/>
      <point x="156" y="143"/>
      <point x="176" y="148"/>
      <point x="193" y="155" type="curve"/>
      <point x="212" y="131" type="line"/>
      <point x="236" y="237" type="line"/>
      <point x="215" y="227"/>
      <point x="197" y="222"/>
      <point x="179" y="222" type="curve" smooth="yes"/>
      <point x="147" y="222"/>
      <point x="133" y="239"/>
      <point x="136" y="271" type="curve"/>
      <point x="139" y="305"/>
      <point x="156" y="322"/>
      <point x="186" y="322" type="curve"/>
      <point x="225" y="322"/>
      <point x="230" y="293"/>
      <point x="225" y="242" type="curve"/>
      <point x="217" y="141"/>
      <point x="175" y="105"/>
      <point x="37" y="54" type="curve"/>
      <point x="35" y="43" type="line"/>
      <point x="107" y="-7" type="line"/>
      <point x="113" y="-7" type="line"/>
      <point x="245" y="49"/>
      <point x="327" y="139"/>
      <point x="336" y="244" type="curve"/>
      <point x="344" y="338"/>
      <point x="290" y="395"/>
      <point x="194" y="395" type="curve"/>
    </contour>
  </outline>
</glyph>
<glyph name="one.tosf" format="1">
  <advance width="475"/>
  <outline>
    <contour>
      <point x="59" y="445" type="line"/>
      <point x="44" y="320" type="line"/>
      <point x="55" y="312" type="line"/>
      <point x="193" y="338" type="line"/>
      <point x="175" y="193" type="line"/>
      <point x="145" y="0" type="line"/>
      <point x="301" y="0" type="line"/>
      <point x="321" y="209" type="line"/>
      <point x="364" y="499" type="line"/>
      <point x="344" y="515" type="line"/>
    </contour>
  </outline>
</glyph>
<glyph name="seven.dnom" format="1">
  <advance width="316"/>
  <outline>
    <contour>
      <point x="21" y="296" type="line"/>
      <point x="26" y="287" type="line"/>
      <point x="98" y="294" type="line"/>
      <point x="184" y="294" type="line"/>
      <point x="24" y="35" type="line"/>
      <point x="29" y="17" type="line"/>
      <point x="122" y="-8" type="line"/>
      <point x="181" y="105" type="line"/>
      <point x="303" y="306" type="line"/>
      <point x="313" y="389" type="line"/>
      <point x="275" y="388" type="line"/>
      <point x="130" y="388" type="line"/>
      <point x="41" y="390" type="line"/>
    </contour>
  </outline>
</glyph>
<glyph name="seven.lf" format="1">
  <advance width="429"/>
  <outline>
    <contour>
      <point x="37" y="460" type="line"/>
      <point x="43" y="447" type="line"/>
      <point x="143" y="458" type="line"/>
      <point x="284" y="458" type="line"/>
      <point x="37" y="45" type="line"/>
      <point x="44" y="20" type="line"/>
      <point x="164" y="-15" type="line"/>
      <point x="245" y="147" type="line"/>
      <point x="436" y="475" type="line"/>
      <point x="450" y="588" type="line"/>
      <point x="397" y="586" type="line"/>
      <point x="183" y="586" type="line"/>
      <point x="63" y="590" type="line"/>
    </contour>
  </outline>
</glyph>
<glyph name="six.tosf" format="1">
  <advance width="475"/>
  <outline>
    <contour>
      <point x="352" y="597" type="line"/>
      <point x="130" y="502"/>
      <point x="20" y="346"/>
      <point x="20" y="192" type="curve" smooth="yes"/>
      <point x="20" y="68"/>
      <point x="92" y="-11"/>
      <point x="221" y="-11" type="curve" smooth="yes"/>
      <point x="379" y="-11"/>
      <point x="446" y="107"/>
      <point x="446" y="200" type="curve" smooth="yes"/>
      <point x="446" y="287"/>
      <point x="387" y="367"/>
      <point x="289" y="367" type="curve" smooth="yes"/>
      <point x="261" y="367"/>
      <point x="238" y="359"/>
      <point x="211" y="345" type="curve"/>
      <point x="188" y="377" type="line"/>
      <point x="150" y="224" type="line"/>
      <point x="181" y="247"/>
      <point x="214" y="258"/>
      <point x="242" y="258" type="curve" smooth="yes"/>
      <point x="284" y="258"/>
      <point x="304" y="233"/>
      <point x="304" y="185" type="curve" smooth="yes"/>
      <point x="304" y="136"/>
      <point x="284" y="92"/>
      <point x="228" y="92" type="curve" smooth="yes"/>
      <point x="175" y="92"/>
      <point x="160" y="130"/>
      <point x="160" y="193" type="curve" smooth="yes"/>
      <point x="160" y="333"/>
      <point x="225" y="442"/>
      <point x="453" y="512" type="curve"/>
      <point x="455" y="528" type="line"/>
      <point x="359" y="597" type="line"/>
    </contour>
  </outline>
</glyph>
<glyph name="three.lf" format="1">
  <advance width="445"/>
  <outline>
    <contour>
      <point x="184" y="597"/>
      <point x="124" y="577"/>
      <point x="62" y="540" type="curve"/>
      <point x="72" y="430" type="line"/>
      <point x="88" y="430" type="line"/>
      <point x="133" y="456"/>
      <point x="171" y="471"/>
      <point x="208" y="471" type="curve" smooth="yes"/>
      <point x="243" y="471"/>
      <point x="262" y="456"/>
      <point x="262" y="429" type="curve" smooth="yes"/>
      <point x="262" y="386"/>
      <point x="212" y="354"/>
      <point x="174" y="353" type="curve" smooth="yes"/>
      <point x="120" y="351" type="line"/>
      <point x="103" y="244" type="line"/>
      <point x="109" y="234" type="line"/>
      <point x="184" y="234" type="line"/>
      <point x="230" y="233"/>
      <point x="252" y="216"/>
      <point x="252" y="184" type="curve" smooth="yes"/>
      <point x="252" y="138"/>
      <point x="210" y="110"/>
      <point x="137" y="110" type="curve" smooth="yes"/>
      <point x="101" y="110"/>
      <point x="64" y="117"/>
      <point x="25" y="132" type="curve"/>
      <point x="13" y="122" type="line"/>
      <point x="7" y="2" type="line"/>
      <point x="40" y="-4"/>
      <point x="89" y="-9"/>
      <point x="125" y="-9" type="curve" smooth="yes"/>
      <point x="290" y="-9"/>
      <point x="402" y="75"/>
      <point x="402" y="191" type="curve" smooth="yes"/>
      <point x="402" y="252"/>
      <point x="371" y="285"/>
      <point x="313" y="310" type="curve"/>
      <point x="313" y="315" type="line"/>
      <point x="389" y="351"/>
      <point x="426" y="418"/>
      <point x="426" y="470" type="curve" smooth="yes"/>
      <point x="426" y="545"/>
      <point x="353" y="597"/>
      <point x="247" y="597" type="curve" smooth="yes"/>
    </contour>
  </outline>
</glyph>
<glyph name="three.tf" format="1">
  <advance width="475"/>
  <outline>
    <contour>
      <point x="199" y="597"/>
      <point x="138" y="577"/>
      <point x="76" y="540" type="curve"/>
      <point x="86" y="430" type="line"/>
      <point x="102" y="430" type="line"/>
      <point x="147" y="456"/>
      <point x="185" y="471"/>
      <point x="223" y="471" type="curve" smooth="yes"/>
      <point x="258" y="471"/>
      <point x="277" y="456"/>
      <point x="277" y="429" type="curve" smooth="yes"/>
      <point x="277" y="386"/>
      <point x="227" y="354"/>
      <point x="188" y="353" type="curve" smooth="yes"/>
      <point x="135" y="351" type="line"/>
      <point x="118" y="244" type="line"/>
      <point x="123" y="234" type="line"/>
      <point x="199" y="234" type="line"/>
      <point x="245" y="233"/>
      <point x="267" y="216"/>
      <point x="267" y="184" type="curve" smooth="yes"/>
      <point x="267" y="138"/>
      <point x="225" y="110"/>
      <point x="152" y="110" type="curve" smooth="yes"/>
      <point x="115" y="110"/>
      <point x="78" y="117"/>
      <point x="39" y="132" type="curve"/>
      <point x="27" y="122" type="line"/>
      <point x="21" y="2" type="line"/>
      <point x="54" y="-4"/>
      <point x="103" y="-9"/>
      <point x="139" y="-9" type="curve" smooth="yes"/>
      <point x="305" y="-9"/>
      <point x="417" y="75"/>
      <point x="417" y="191" type="curve" smooth="yes"/>
      <point x="417" y="252"/>
      <point x="386" y="285"/>
      <point x="328" y="310" type="curve"/>
      <point x="328" y="315" type="line"/>
      <point x="404" y="351"/>
      <point x="441" y="418"/>
      <point x="441" y="470" type="curve" smooth="yes"/>
      <point x="441" y="545"/>
      <point x="368" y="597"/>
      <point x="262" y="597" type="curve" smooth="yes"/>
    </contour>
  </outline>
</glyph>
<glyph name="two.lf" format="1">
  <advance width="500"/>
  <outline>
    <contour>
      <point x="212" y="595"/>
      <point x="138" y="564"/>
      <point x="72" y="514" type="curve"/>
      <point x="83" y="393" type="line"/>
      <point x="100" y="393" type="line"/>
      <point x="150" y="437"/>
      <point x="205" y="463"/>
      <point x="245" y="463" type="curve" smooth="yes"/>
      <point x="281" y="463"/>
      <point x="296" y="444"/>
      <point x="296" y="420" type="curve" smooth="yes"/>
      <point x="296" y="377"/>
      <point x="247" y="328"/>
      <point x="186" y="264" type="curve" smooth="yes"/>
      <point x="21" y="99" type="line"/>
      <point x="10" y="3" type="line"/>
      <point x="17" y="-3" type="line"/>
      <point x="55" y="0" type="line"/>
      <point x="296" y="0" type="line"/>
      <point x="429" y="-7" type="line"/>
      <point x="462" y="120" type="line"/>
      <point x="455" y="131" type="line"/>
      <point x="357" y="122" type="line"/>
      <point x="227" y="122" type="line" smooth="yes"/>
      <point x="225" y="127" type="line"/>
      <point x="314" y="224" type="line" smooth="yes"/>
      <point x="419" y="336"/>
      <point x="455" y="389"/>
      <point x="455" y="450" type="curve" smooth="yes"/>
      <point x="455" y="537"/>
      <point x="383" y="595"/>
      <point x="284" y="595" type="curve" smooth="yes"/>
    </contour>
  </outline>
</glyph>
<glyph name="u.sups" format="1">
  <advance width="346"/>
  <outline>
    <contour>
      <point x="181" y="644" type="line"/>
      <point x="83" y="638" type="line"/>
      <point x="79" y="564" type="line"/>
      <point x="53" y="403" type="line"/>
      <point x="52" y="391" type="line"/>
      <point x="52" y="355"/>
      <point x="83" y="327"/>
      <point x="132" y="321" type="curve"/>
      <point x="139" y="321" type="line"/>
      <point x="172" y="349"/>
      <point x="199" y="386"/>
      <point x="229" y="433" type="curve"/>
      <point x="251" y="433" type="line"/>
      <point x="265" y="548" type="line"/>
      <point x="215" y="459"/>
      <point x="180" y="414"/>
      <point x="163" y="414" type="curve" smooth="yes"/>
      <point x="154" y="414"/>
      <point x="148" y="423"/>
      <point x="148" y="437" type="curve"/>
      <point x="149" y="446" type="line"/>
      <point x="181" y="644" type="line"/>
    </contour>
    <contour>
      <point x="353" y="645" type="line"/>
      <point x="258" y="639" type="line"/>
      <point x="255" y="567" type="line"/>
      <point x="222" y="322" type="line"/>
      <point x="317" y="328" type="line"/>
      <point x="321" y="402" type="line"/>
      <point x="353" y="645" type="line"/>
    </contour>
    <contour>
      <point x="352" y="6" type="move" name="bottom"/>
    </contour>
    <contour>
      <point x="226" y="300" type="move" name="ogonek"/>
    </contour>
    <contour>
      <point x="185" y="288" type="move" name="top"/>
    </contour>
  </outline>
</glyph>
<glyph name="x.sups" format="1">
  <advance width="333"/>
  <outline>
    <contour>
      <point x="253" y="485" type="line"/>
      <point x="364" y="642" type="line"/>
      <point x="264" y="642" type="line"/>
      <point x="250" y="612" type="line"/>
      <point x="206" y="550" type="line"/>
      <point x="179" y="615" type="line"/>
      <point x="169" y="649" type="line"/>
      <point x="67" y="640" type="line"/>
      <point x="131" y="490" type="line"/>
      <point x="18" y="325" type="line"/>
      <point x="121" y="325" type="line"/>
      <point x="140" y="362" type="line"/>
      <point x="184" y="432" type="line"/>
      <point x="211" y="362" type="line"/>
      <point x="220" y="320" type="line"/>
      <point x="327" y="328" type="line"/>
      <point x="253" y="485" type="line"/>
    </contour>
  </outline>
</glyph>
<glyph name="zero.dnom" format="1">
  <advance width="379"/>
  <outline>
    <contour>
      <point x="91" y="394"/>
      <point x="20" y="301"/>
      <point x="20" y="150" type="curve" smooth="yes"/>
      <point x="20" y="49"/>
      <point x="67" y="-7"/>
      <point x="153" y="-7" type="curve" smooth="yes"/>
      <point x="278" y="-7"/>
      <point x="348" y="86"/>
      <point x="348" y="238" type="curve" smooth="yes"/>
      <point x="348" y="338"/>
      <point x="302" y="394"/>
      <point x="216" y="394" type="curve" smooth="yes"/>
    </contour>
    <contour>
      <point x="233" y="287"/>
      <point x="252" y="264"/>
      <point x="252" y="213" type="curve" smooth="yes"/>
      <point x="252" y="140"/>
      <point x="234" y="92"/>
      <point x="171" y="92" type="curve" smooth="yes"/>
      <point x="132" y="92"/>
      <point x="115" y="116"/>
      <point x="115" y="167" type="curve" smooth="yes"/>
      <point x="115" y="253"/>
      <point x="143" y="287"/>
      <point x="193" y="287" type="curve" smooth="yes"/>
    </contour>
  </outline>
</glyph>
